<svg xmlns="http://www.w3.org/2000/svg" xmlns:xlink="http://www.w3.org/1999/xlink" width="500" zoomAndPan="magnify" viewBox="0 0 375 374.999991" height="500" preserveAspectRatio="xMidYMid meet" version="1.0"><defs><clipPath id="deb8c46efb"><path d="M 18.96875 214 L 32 214 L 32 228 L 18.96875 228 Z M 18.96875 214 " clip-rule="nonzero"/></clipPath><clipPath id="59da9761f1"><path d="M 217 21.496094 L 231 21.496094 L 231 35 L 217 35 Z M 217 21.496094 " clip-rule="nonzero"/></clipPath><clipPath id="5ae1959c95"><path d="M 189 21.496094 L 203 21.496094 L 203 35 L 189 35 Z M 189 21.496094 " clip-rule="nonzero"/></clipPath><clipPath id="dd0a066db6"><path d="M 146 21.496094 L 160 21.496094 L 160 35 L 146 35 Z M 146 21.496094 " clip-rule="nonzero"/></clipPath><clipPath id="4884b11b29"><path d="M 342 214 L 355.71875 214 L 355.71875 228 L 342 228 Z M 342 214 " clip-rule="nonzero"/></clipPath><clipPath id="d767eaba57"><path d="M 342 200 L 355.71875 200 L 355.71875 214 L 342 214 Z M 342 200 " clip-rule="nonzero"/></clipPath><clipPath id="eaff0d3dd8"><path d="M 160 340 L 174 340 L 174 353.746094 L 160 353.746094 Z M 160 340 " clip-rule="nonzero"/></clipPath></defs><path fill="#e2dfda" d="M 250.617188 247.789062 L 250.617188 246.316406 L 127.976562 246.316406 L 127.976562 124.9375 L 249.148438 124.9375 L 249.148438 247.789062 L 250.617188 247.789062 L 250.617188 246.316406 L 250.617188 247.789062 L 252.089844 247.789062 L 252.089844 123.46875 C 252.089844 123.078125 251.929688 122.703125 251.65625 122.429688 C 251.382812 122.152344 251.003906 121.996094 250.617188 121.996094 L 126.503906 121.996094 C 126.113281 121.996094 125.738281 122.152344 125.464844 122.429688 C 125.191406 122.703125 125.035156 123.078125 125.035156 123.46875 L 125.035156 247.789062 C 125.035156 248.175781 125.191406 248.554688 125.464844 248.828125 C 125.738281 249.105469 126.117188 249.261719 126.503906 249.261719 L 250.617188 249.261719 C 251.003906 249.261719 251.382812 249.105469 251.65625 248.828125 C 251.929688 248.554688 252.089844 248.175781 252.089844 247.789062 L 250.617188 247.789062 " fill-opacity="1" fill-rule="nonzero"/><path fill="#ffffff" d="M 236.027344 230.480469 L 234.558594 230.480469 C 234.554688 231.160156 234.015625 231.699219 233.34375 231.699219 L 143.777344 231.699219 C 143.105469 231.699219 142.5625 231.160156 142.5625 230.480469 L 142.5625 140.773438 C 142.5625 140.101562 143.109375 139.554688 143.777344 139.554688 L 233.34375 139.554688 C 234.011719 139.554688 234.554688 140.097656 234.558594 140.773438 L 234.558594 230.480469 L 237.496094 230.480469 L 237.496094 140.773438 C 237.496094 138.476562 235.640625 136.609375 233.34375 136.609375 L 143.777344 136.609375 C 141.480469 136.609375 139.625 138.476562 139.625 140.773438 L 139.625 230.480469 C 139.625 231.628906 140.089844 232.679688 140.839844 233.425781 C 141.585938 234.175781 142.636719 234.644531 143.777344 234.644531 L 233.34375 234.644531 C 234.484375 234.644531 235.53125 234.175781 236.28125 233.425781 C 237.03125 232.679688 237.496094 231.628906 237.496094 230.480469 L 236.027344 230.480469 " fill-opacity="1" fill-rule="nonzero"/><path fill="#ffffff" d="M 126.503906 132.351562 L 126.503906 130.878906 L 118.355469 130.878906 C 117.699219 130.875 117.050781 131.015625 116.492188 131.347656 C 116.074219 131.589844 115.734375 131.9375 115.492188 132.304688 C 115.128906 132.859375 114.964844 133.445312 114.867188 134.015625 C 114.773438 134.582031 114.753906 135.148438 114.753906 135.714844 C 114.753906 136.214844 114.769531 136.71875 114.839844 137.222656 C 114.945312 137.972656 115.15625 138.777344 115.765625 139.480469 C 116.070312 139.828125 116.476562 140.117188 116.925781 140.296875 C 117.375 140.476562 117.863281 140.550781 118.355469 140.550781 L 126.503906 140.550781 C 126.890625 140.550781 127.269531 140.394531 127.542969 140.121094 C 127.816406 139.847656 127.976562 139.464844 127.976562 139.078125 L 127.976562 132.351562 C 127.976562 131.964844 127.816406 131.582031 127.542969 131.308594 C 127.269531 131.035156 126.890625 130.878906 126.503906 130.878906 L 126.503906 132.351562 L 125.035156 132.351562 L 125.035156 137.605469 L 118.355469 137.605469 C 118.085938 137.601562 118.007812 137.558594 117.988281 137.550781 L 117.945312 137.5 C 117.898438 137.4375 117.820312 137.25 117.765625 136.933594 C 117.714844 136.617188 117.695312 136.195312 117.695312 135.714844 C 117.695312 135.289062 117.707031 134.902344 117.75 134.605469 C 117.808594 134.144531 117.933594 133.921875 117.964844 133.898438 L 118.015625 133.867188 C 118.058594 133.855469 118.15625 133.824219 118.355469 133.824219 L 126.503906 133.824219 L 126.503906 132.351562 L 125.035156 132.351562 L 126.503906 132.351562 " fill-opacity="1" fill-rule="nonzero"/><path fill="#ffffff" d="M 126.503906 146.609375 L 126.503906 145.136719 L 118.355469 145.136719 C 117.699219 145.132812 117.050781 145.277344 116.492188 145.609375 C 116.074219 145.855469 115.734375 146.195312 115.492188 146.5625 C 115.128906 147.125 114.964844 147.710938 114.867188 148.273438 C 114.773438 148.84375 114.753906 149.410156 114.753906 149.976562 C 114.753906 150.476562 114.769531 150.980469 114.839844 151.488281 C 114.945312 152.234375 115.15625 153.035156 115.769531 153.742188 C 116.070312 154.085938 116.476562 154.378906 116.925781 154.554688 C 117.375 154.734375 117.863281 154.8125 118.355469 154.8125 L 126.503906 154.8125 C 126.890625 154.8125 127.269531 154.652344 127.542969 154.382812 C 127.816406 154.105469 127.976562 153.726562 127.976562 153.339844 L 127.976562 146.609375 C 127.976562 146.222656 127.816406 145.84375 127.542969 145.566406 C 127.269531 145.292969 126.890625 145.136719 126.503906 145.136719 L 126.503906 146.609375 L 125.035156 146.609375 L 125.035156 151.867188 L 118.355469 151.867188 C 118.085938 151.867188 118.007812 151.816406 117.988281 151.808594 L 117.945312 151.757812 C 117.898438 151.699219 117.820312 151.507812 117.765625 151.191406 C 117.714844 150.882812 117.695312 150.457031 117.695312 149.976562 C 117.695312 149.546875 117.707031 149.164062 117.75 148.863281 C 117.808594 148.402344 117.9375 148.183594 117.964844 148.160156 L 118.015625 148.128906 C 118.058594 148.113281 118.15625 148.082031 118.355469 148.082031 L 126.503906 148.082031 L 126.503906 146.609375 L 125.035156 146.609375 L 126.503906 146.609375 " fill-opacity="1" fill-rule="nonzero"/><path fill="#fafafa" d="M 126.503906 160.867188 L 126.503906 159.398438 L 118.355469 159.398438 C 117.699219 159.398438 117.046875 159.535156 116.492188 159.867188 C 116.074219 160.113281 115.734375 160.457031 115.492188 160.828125 C 115.128906 161.382812 114.964844 161.96875 114.867188 162.535156 C 114.773438 163.105469 114.753906 163.671875 114.753906 164.234375 C 114.753906 164.738281 114.769531 165.238281 114.839844 165.746094 C 114.945312 166.492188 115.15625 167.296875 115.765625 168 C 116.066406 168.347656 116.472656 168.636719 116.925781 168.816406 C 117.375 168.996094 117.863281 169.074219 118.355469 169.074219 L 126.503906 169.074219 C 126.890625 169.074219 127.269531 168.917969 127.542969 168.640625 C 127.816406 168.367188 127.976562 167.988281 127.976562 167.601562 L 127.976562 160.867188 C 127.976562 160.480469 127.816406 160.101562 127.542969 159.828125 C 127.269531 159.554688 126.890625 159.398438 126.503906 159.398438 L 126.503906 160.867188 L 125.035156 160.867188 L 125.035156 166.128906 L 118.355469 166.128906 C 118.085938 166.125 118.007812 166.078125 117.988281 166.066406 L 117.945312 166.023438 C 117.898438 165.960938 117.820312 165.769531 117.765625 165.453125 C 117.714844 165.140625 117.695312 164.714844 117.695312 164.234375 C 117.695312 163.808594 117.707031 163.425781 117.75 163.128906 C 117.808594 162.664062 117.9375 162.441406 117.964844 162.421875 L 118.015625 162.386719 C 118.058594 162.371094 118.15625 162.339844 118.355469 162.339844 L 126.503906 162.339844 L 126.503906 160.867188 L 125.035156 160.867188 L 126.503906 160.867188 " fill-opacity="1" fill-rule="nonzero"/><path fill="#fff" d="M 126.503906 175.136719 L 126.503906 173.664062 L 118.355469 173.664062 C 117.699219 173.664062 117.050781 173.800781 116.492188 174.132812 C 116.074219 174.375 115.734375 174.722656 115.492188 175.09375 C 115.128906 175.648438 114.964844 176.234375 114.867188 176.800781 C 114.773438 177.367188 114.753906 177.933594 114.753906 178.5 C 114.753906 179 114.769531 179.503906 114.839844 180.007812 C 114.945312 180.753906 115.15625 181.558594 115.769531 182.261719 C 116.070312 182.609375 116.476562 182.898438 116.925781 183.074219 C 117.375 183.257812 117.863281 183.332031 118.355469 183.332031 L 126.503906 183.332031 C 126.890625 183.332031 127.269531 183.175781 127.542969 182.902344 C 127.816406 182.628906 127.976562 182.246094 127.976562 181.859375 L 127.976562 175.136719 C 127.976562 174.75 127.816406 174.367188 127.542969 174.09375 C 127.269531 173.820312 126.890625 173.664062 126.503906 173.664062 L 126.503906 175.136719 L 125.035156 175.136719 L 125.035156 180.386719 L 118.355469 180.386719 C 118.085938 180.382812 118.007812 180.339844 117.988281 180.332031 L 117.941406 180.28125 C 117.898438 180.21875 117.820312 180.03125 117.765625 179.714844 C 117.714844 179.402344 117.695312 178.980469 117.695312 178.5 C 117.695312 178.074219 117.707031 177.6875 117.75 177.390625 C 117.808594 176.929688 117.933594 176.707031 117.964844 176.6875 L 118.015625 176.652344 C 118.058594 176.636719 118.15625 176.609375 118.355469 176.609375 L 126.503906 176.609375 L 126.503906 175.136719 L 125.035156 175.136719 L 126.503906 175.136719 " fill-opacity="1" fill-rule="nonzero"/><path fill="#fff" d="M 126.503906 189.394531 L 126.503906 187.921875 L 118.355469 187.921875 C 117.699219 187.921875 117.050781 188.058594 116.492188 188.394531 C 116.074219 188.640625 115.734375 188.984375 115.492188 189.351562 C 115.128906 189.910156 114.964844 190.496094 114.867188 191.0625 C 114.773438 191.628906 114.753906 192.199219 114.753906 192.761719 C 114.753906 193.261719 114.769531 193.765625 114.839844 194.273438 C 114.945312 195.019531 115.15625 195.824219 115.765625 196.527344 C 116.066406 196.871094 116.472656 197.164062 116.925781 197.34375 C 117.375 197.523438 117.863281 197.601562 118.355469 197.601562 L 126.503906 197.601562 C 126.890625 197.601562 127.269531 197.441406 127.542969 197.167969 C 127.816406 196.894531 127.976562 196.515625 127.976562 196.128906 L 127.976562 189.394531 C 127.976562 189.007812 127.816406 188.628906 127.542969 188.355469 C 127.269531 188.078125 126.890625 187.921875 126.503906 187.921875 L 126.503906 189.394531 L 125.035156 189.394531 L 125.035156 194.65625 L 118.355469 194.65625 C 118.085938 194.652344 118.007812 194.605469 117.988281 194.59375 L 117.945312 194.542969 C 117.898438 194.488281 117.820312 194.292969 117.765625 193.980469 C 117.714844 193.664062 117.695312 193.242188 117.695312 192.761719 C 117.695312 192.332031 117.707031 191.953125 117.75 191.652344 C 117.808594 191.1875 117.9375 190.964844 117.964844 190.949219 L 118.015625 190.914062 C 118.058594 190.898438 118.15625 190.867188 118.355469 190.867188 L 126.503906 190.867188 L 126.503906 189.394531 L 125.035156 189.394531 L 126.503906 189.394531 " fill-opacity="1" fill-rule="nonzero"/><path fill="#fff" d="M 126.503906 203.652344 L 126.503906 202.179688 L 118.355469 202.179688 C 117.699219 202.179688 117.050781 202.324219 116.492188 202.652344 C 116.074219 202.898438 115.734375 203.242188 115.492188 203.613281 C 115.128906 204.167969 114.964844 204.753906 114.867188 205.320312 C 114.773438 205.890625 114.753906 206.457031 114.753906 207.019531 C 114.753906 207.523438 114.769531 208.023438 114.839844 208.53125 C 114.945312 209.277344 115.15625 210.082031 115.765625 210.789062 C 116.070312 211.132812 116.476562 211.421875 116.925781 211.601562 C 117.375 211.78125 117.863281 211.859375 118.355469 211.859375 L 126.503906 211.859375 C 126.890625 211.859375 127.269531 211.703125 127.542969 211.425781 C 127.816406 211.152344 127.976562 210.773438 127.976562 210.386719 L 127.976562 203.652344 C 127.976562 203.265625 127.816406 202.886719 127.542969 202.613281 C 127.269531 202.339844 126.890625 202.179688 126.503906 202.179688 L 126.503906 203.652344 L 125.035156 203.652344 L 125.035156 208.914062 L 118.355469 208.914062 C 118.085938 208.910156 118.007812 208.863281 117.988281 208.851562 L 117.945312 208.808594 C 117.898438 208.746094 117.820312 208.558594 117.765625 208.238281 C 117.714844 207.925781 117.695312 207.503906 117.695312 207.019531 C 117.695312 206.59375 117.707031 206.210938 117.75 205.914062 C 117.808594 205.453125 117.9375 205.230469 117.964844 205.207031 L 118.015625 205.171875 C 118.058594 205.15625 118.15625 205.125 118.355469 205.125 L 126.503906 205.125 L 126.503906 203.652344 L 125.035156 203.652344 L 126.503906 203.652344 " fill-opacity="1" fill-rule="nonzero"/><path fill="#fff" d="M 126.503906 217.917969 L 126.503906 216.445312 L 118.355469 216.445312 C 117.699219 216.445312 117.050781 216.582031 116.492188 216.914062 C 116.074219 217.15625 115.734375 217.503906 115.492188 217.871094 C 115.128906 218.429688 114.964844 219.015625 114.867188 219.582031 C 114.773438 220.148438 114.753906 220.714844 114.753906 221.28125 C 114.753906 221.78125 114.769531 222.289062 114.839844 222.789062 C 114.945312 223.539062 115.15625 224.34375 115.765625 225.046875 C 116.070312 225.394531 116.476562 225.683594 116.925781 225.859375 C 117.375 226.046875 117.863281 226.117188 118.355469 226.117188 L 126.503906 226.117188 C 126.890625 226.117188 127.269531 225.960938 127.542969 225.6875 C 127.816406 225.414062 127.976562 225.03125 127.976562 224.644531 L 127.976562 217.917969 C 127.976562 217.53125 127.816406 217.148438 127.542969 216.875 C 127.269531 216.601562 126.890625 216.445312 126.503906 216.445312 L 126.503906 217.917969 L 125.035156 217.917969 L 125.035156 223.171875 L 118.355469 223.171875 C 118.085938 223.171875 118.007812 223.125 117.988281 223.117188 L 117.945312 223.066406 C 117.898438 223.003906 117.820312 222.816406 117.765625 222.5 C 117.714844 222.183594 117.695312 221.761719 117.695312 221.28125 C 117.695312 220.855469 117.707031 220.46875 117.75 220.171875 C 117.808594 219.710938 117.933594 219.488281 117.964844 219.464844 L 118.015625 219.433594 C 118.058594 219.417969 118.15625 219.390625 118.355469 219.390625 L 126.503906 219.390625 L 126.503906 217.917969 L 125.035156 217.917969 L 126.503906 217.917969 " fill-opacity="1" fill-rule="nonzero"/><path fill="#fff" d="M 126.503906 232.183594 L 126.503906 230.710938 L 118.355469 230.710938 C 117.699219 230.707031 117.050781 230.84375 116.492188 231.179688 C 116.074219 231.425781 115.734375 231.769531 115.492188 232.136719 C 115.128906 232.695312 114.964844 233.28125 114.867188 233.847656 C 114.773438 234.414062 114.753906 234.984375 114.753906 235.546875 C 114.753906 236.046875 114.769531 236.550781 114.839844 237.054688 C 114.945312 237.800781 115.15625 238.605469 115.769531 239.3125 C 116.070312 239.65625 116.476562 239.945312 116.925781 240.125 C 117.375 240.304688 117.863281 240.382812 118.355469 240.382812 L 126.503906 240.382812 C 126.890625 240.382812 127.269531 240.222656 127.542969 239.949219 C 127.816406 239.675781 127.976562 239.296875 127.976562 238.910156 L 127.976562 232.183594 C 127.976562 231.792969 127.816406 231.417969 127.542969 231.140625 C 127.269531 230.867188 126.890625 230.710938 126.503906 230.710938 L 126.503906 232.183594 L 125.035156 232.183594 L 125.035156 237.4375 L 118.355469 237.4375 C 118.085938 237.433594 118.007812 237.386719 117.988281 237.375 L 117.941406 237.324219 C 117.898438 237.269531 117.820312 237.074219 117.765625 236.761719 C 117.714844 236.445312 117.695312 236.023438 117.695312 235.546875 C 117.695312 235.121094 117.707031 234.738281 117.75 234.4375 C 117.808594 233.976562 117.9375 233.75 117.964844 233.734375 L 118.015625 233.703125 C 118.058594 233.683594 118.15625 233.65625 118.355469 233.65625 L 126.503906 233.65625 L 126.503906 232.183594 L 125.035156 232.183594 L 126.503906 232.183594 " fill-opacity="1" fill-rule="nonzero"/><path fill="#fff" d="M 250.617188 132.351562 L 250.617188 133.824219 L 258.765625 133.824219 C 259.035156 133.824219 259.117188 133.871094 259.132812 133.878906 L 259.175781 133.929688 C 259.21875 133.988281 259.300781 134.179688 259.355469 134.492188 C 259.402344 134.808594 259.425781 135.234375 259.425781 135.714844 C 259.425781 136.140625 259.410156 136.527344 259.367188 136.824219 C 259.3125 137.285156 259.179688 137.507812 259.15625 137.53125 L 259.105469 137.5625 C 259.066406 137.578125 258.96875 137.605469 258.765625 137.605469 L 252.089844 137.605469 L 252.089844 132.351562 L 250.617188 132.351562 L 250.617188 133.824219 L 250.617188 132.351562 L 249.148438 132.351562 L 249.148438 139.078125 C 249.148438 139.464844 249.304688 139.847656 249.578125 140.121094 C 249.851562 140.394531 250.230469 140.550781 250.617188 140.550781 L 258.765625 140.550781 C 259.421875 140.550781 260.074219 140.414062 260.628906 140.082031 C 261.046875 139.835938 261.386719 139.488281 261.628906 139.121094 C 261.996094 138.566406 262.15625 137.980469 262.25 137.410156 C 262.347656 136.84375 262.367188 136.28125 262.367188 135.714844 C 262.367188 135.214844 262.351562 134.707031 262.28125 134.207031 C 262.175781 133.457031 261.96875 132.652344 261.355469 131.949219 C 261.054688 131.601562 260.648438 131.3125 260.195312 131.136719 C 259.742188 130.949219 259.261719 130.878906 258.765625 130.878906 L 250.617188 130.878906 C 250.230469 130.878906 249.851562 131.035156 249.578125 131.308594 C 249.304688 131.582031 249.148438 131.964844 249.148438 132.351562 L 250.617188 132.351562 " fill-opacity="1" fill-rule="nonzero"/><path fill="#fff" d="M 250.617188 146.609375 L 250.617188 148.082031 L 258.765625 148.082031 C 259.035156 148.082031 259.117188 148.132812 259.132812 148.140625 L 259.175781 148.1875 C 259.21875 148.246094 259.300781 148.4375 259.355469 148.757812 C 259.402344 149.066406 259.425781 149.492188 259.425781 149.976562 C 259.425781 150.402344 259.410156 150.785156 259.367188 151.085938 C 259.3125 151.542969 259.179688 151.765625 259.15625 151.789062 L 259.105469 151.820312 C 259.066406 151.835938 258.96875 151.867188 258.765625 151.867188 L 252.089844 151.867188 L 252.089844 146.609375 L 250.617188 146.609375 L 250.617188 148.082031 L 250.617188 146.609375 L 249.148438 146.609375 L 249.148438 153.339844 C 249.148438 153.726562 249.304688 154.105469 249.578125 154.382812 C 249.851562 154.652344 250.230469 154.8125 250.617188 154.8125 L 258.765625 154.8125 C 259.421875 154.816406 260.074219 154.671875 260.628906 154.34375 C 261.046875 154.097656 261.386719 153.753906 261.628906 153.382812 C 261.996094 152.824219 262.15625 152.238281 262.25 151.675781 C 262.347656 151.101562 262.367188 150.539062 262.367188 149.976562 C 262.367188 149.472656 262.351562 148.972656 262.28125 148.464844 C 262.175781 147.71875 261.96875 146.914062 261.355469 146.207031 C 261.054688 145.863281 260.648438 145.570312 260.195312 145.394531 C 259.742188 145.214844 259.261719 145.136719 258.765625 145.136719 L 250.617188 145.136719 C 250.230469 145.136719 249.851562 145.292969 249.578125 145.566406 C 249.304688 145.84375 249.148438 146.222656 249.148438 146.609375 L 250.617188 146.609375 " fill-opacity="1" fill-rule="nonzero"/><path fill="#fff" d="M 250.617188 160.867188 L 250.617188 162.339844 L 258.765625 162.339844 C 259.035156 162.34375 259.117188 162.390625 259.132812 162.398438 L 259.175781 162.449219 C 259.21875 162.511719 259.300781 162.699219 259.355469 163.015625 C 259.402344 163.332031 259.425781 163.757812 259.425781 164.234375 C 259.425781 164.664062 259.410156 165.042969 259.367188 165.347656 C 259.3125 165.808594 259.179688 166.03125 259.15625 166.046875 L 259.105469 166.082031 C 259.066406 166.097656 258.96875 166.128906 258.765625 166.128906 L 252.089844 166.128906 L 252.089844 160.867188 L 250.617188 160.867188 L 250.617188 162.339844 L 250.617188 160.867188 L 249.148438 160.867188 L 249.148438 167.601562 C 249.148438 167.988281 249.304688 168.367188 249.578125 168.640625 C 249.851562 168.917969 250.230469 169.074219 250.617188 169.074219 L 258.765625 169.074219 C 259.421875 169.074219 260.074219 168.9375 260.632812 168.601562 C 261.046875 168.355469 261.386719 168.011719 261.628906 167.644531 C 261.996094 167.082031 262.15625 166.5 262.25 165.933594 C 262.347656 165.367188 262.367188 164.796875 262.367188 164.234375 C 262.367188 163.734375 262.351562 163.230469 262.28125 162.722656 C 262.175781 161.976562 261.96875 161.175781 261.355469 160.46875 C 261.054688 160.125 260.648438 159.832031 260.195312 159.652344 C 259.742188 159.472656 259.261719 159.398438 258.765625 159.398438 L 250.617188 159.398438 C 250.230469 159.398438 249.851562 159.554688 249.578125 159.828125 C 249.304688 160.101562 249.148438 160.480469 249.148438 160.867188 L 250.617188 160.867188 " fill-opacity="1" fill-rule="nonzero"/><path fill="#fff" d="M 250.617188 175.136719 L 250.617188 176.609375 L 258.765625 176.609375 C 259.035156 176.609375 259.117188 176.65625 259.132812 176.664062 L 259.175781 176.714844 C 259.21875 176.777344 259.300781 176.964844 259.355469 177.277344 C 259.402344 177.59375 259.425781 178.019531 259.425781 178.5 C 259.425781 178.925781 259.410156 179.308594 259.367188 179.605469 C 259.3125 180.066406 259.183594 180.289062 259.15625 180.3125 L 259.105469 180.34375 C 259.066406 180.359375 258.96875 180.386719 258.765625 180.386719 L 252.089844 180.386719 L 252.089844 175.136719 L 250.617188 175.136719 L 250.617188 176.609375 L 250.617188 175.136719 L 249.148438 175.136719 L 249.148438 181.859375 C 249.148438 182.246094 249.304688 182.628906 249.578125 182.902344 C 249.851562 183.175781 250.230469 183.332031 250.617188 183.332031 L 258.765625 183.332031 C 259.421875 183.332031 260.074219 183.195312 260.628906 182.863281 C 261.046875 182.617188 261.386719 182.269531 261.628906 181.902344 C 261.992188 181.347656 262.15625 180.761719 262.25 180.195312 C 262.347656 179.628906 262.367188 179.0625 262.367188 178.5 C 262.367188 178 262.351562 177.496094 262.28125 176.992188 C 262.175781 176.242188 261.96875 175.4375 261.355469 174.734375 C 261.054688 174.386719 260.648438 174.097656 260.195312 173.921875 C 259.742188 173.738281 259.261719 173.664062 258.765625 173.664062 L 250.617188 173.664062 C 250.230469 173.664062 249.851562 173.820312 249.578125 174.09375 C 249.304688 174.367188 249.148438 174.75 249.148438 175.136719 L 250.617188 175.136719 " fill-opacity="1" fill-rule="nonzero"/><path fill="#fff" d="M 250.617188 189.394531 L 250.617188 190.867188 L 258.765625 190.867188 C 259.035156 190.871094 259.117188 190.917969 259.132812 190.929688 L 259.175781 190.972656 C 259.21875 191.035156 259.300781 191.222656 259.355469 191.542969 C 259.402344 191.855469 259.425781 192.277344 259.425781 192.761719 C 259.425781 193.191406 259.410156 193.570312 259.367188 193.871094 C 259.3125 194.332031 259.179688 194.554688 259.15625 194.574219 L 259.105469 194.609375 C 259.066406 194.625 258.96875 194.65625 258.765625 194.65625 L 252.089844 194.65625 L 252.089844 189.394531 L 250.617188 189.394531 L 250.617188 190.867188 L 250.617188 189.394531 L 249.148438 189.394531 L 249.148438 196.128906 C 249.148438 196.515625 249.304688 196.894531 249.578125 197.167969 C 249.851562 197.441406 250.230469 197.601562 250.617188 197.601562 L 258.765625 197.601562 C 259.421875 197.601562 260.074219 197.460938 260.628906 197.128906 C 261.046875 196.882812 261.386719 196.539062 261.628906 196.167969 C 261.996094 195.609375 262.15625 195.027344 262.25 194.460938 C 262.347656 193.890625 262.367188 193.324219 262.367188 192.761719 C 262.367188 192.257812 262.351562 191.757812 262.28125 191.25 C 262.175781 190.503906 261.96875 189.703125 261.355469 188.996094 C 261.054688 188.648438 260.648438 188.359375 260.195312 188.179688 C 259.742188 188 259.261719 187.921875 258.765625 187.921875 L 250.617188 187.921875 C 250.230469 187.921875 249.851562 188.078125 249.578125 188.355469 C 249.304688 188.628906 249.148438 189.007812 249.148438 189.394531 L 250.617188 189.394531 " fill-opacity="1" fill-rule="nonzero"/><path fill="#fff" d="M 250.617188 203.652344 L 250.617188 205.125 L 258.765625 205.125 C 259.035156 205.128906 259.117188 205.175781 259.132812 205.1875 L 259.175781 205.234375 C 259.21875 205.292969 259.300781 205.488281 259.355469 205.800781 C 259.402344 206.117188 259.425781 206.539062 259.425781 207.019531 C 259.425781 207.449219 259.410156 207.828125 259.367188 208.132812 C 259.3125 208.59375 259.179688 208.816406 259.15625 208.835938 L 259.105469 208.867188 C 259.066406 208.882812 258.96875 208.914062 258.765625 208.914062 L 252.089844 208.914062 L 252.089844 203.652344 L 250.617188 203.652344 L 250.617188 205.125 L 250.617188 203.652344 L 249.148438 203.652344 L 249.148438 210.386719 C 249.148438 210.773438 249.304688 211.152344 249.578125 211.425781 C 249.851562 211.703125 250.230469 211.859375 250.617188 211.859375 L 258.765625 211.859375 C 259.421875 211.859375 260.074219 211.722656 260.628906 211.386719 C 261.046875 211.140625 261.386719 210.796875 261.628906 210.429688 C 261.996094 209.871094 262.15625 209.285156 262.25 208.71875 C 262.347656 208.152344 262.367188 207.582031 262.367188 207.019531 C 262.367188 206.519531 262.351562 206.015625 262.28125 205.511719 C 262.175781 204.765625 261.96875 203.960938 261.355469 203.253906 C 261.054688 202.910156 260.648438 202.617188 260.195312 202.4375 C 259.742188 202.257812 259.261719 202.179688 258.765625 202.179688 L 250.617188 202.179688 C 250.230469 202.179688 249.851562 202.339844 249.578125 202.613281 C 249.304688 202.886719 249.148438 203.265625 249.148438 203.652344 L 250.617188 203.652344 " fill-opacity="1" fill-rule="nonzero"/><path fill="#fff" d="M 250.617188 217.917969 L 250.617188 219.390625 L 258.765625 219.390625 C 259.035156 219.390625 259.117188 219.4375 259.132812 219.445312 L 259.175781 219.496094 C 259.21875 219.558594 259.300781 219.746094 259.355469 220.058594 C 259.402344 220.375 259.425781 220.800781 259.425781 221.28125 C 259.425781 221.707031 259.410156 222.09375 259.367188 222.390625 C 259.3125 222.855469 259.179688 223.078125 259.15625 223.097656 L 259.105469 223.128906 C 259.066406 223.144531 258.96875 223.171875 258.765625 223.171875 L 252.089844 223.171875 L 252.089844 217.917969 L 250.617188 217.917969 L 250.617188 219.390625 L 250.617188 217.917969 L 249.148438 217.917969 L 249.148438 224.644531 C 249.148438 225.03125 249.304688 225.414062 249.578125 225.6875 C 249.851562 225.960938 250.230469 226.117188 250.617188 226.117188 L 258.765625 226.117188 C 259.421875 226.121094 260.074219 225.980469 260.628906 225.648438 C 261.046875 225.40625 261.386719 225.058594 261.628906 224.6875 C 261.996094 224.132812 262.15625 223.546875 262.25 222.980469 C 262.347656 222.410156 262.367188 221.847656 262.367188 221.28125 C 262.367188 220.78125 262.351562 220.277344 262.28125 219.773438 C 262.175781 219.023438 261.96875 218.21875 261.355469 217.515625 C 261.054688 217.167969 260.648438 216.878906 260.195312 216.703125 C 259.742188 216.519531 259.261719 216.445312 258.765625 216.445312 L 250.617188 216.445312 C 250.230469 216.445312 249.851562 216.601562 249.578125 216.875 C 249.304688 217.148438 249.148438 217.53125 249.148438 217.917969 L 250.617188 217.917969 " fill-opacity="1" fill-rule="nonzero"/><path fill="#fff" d="M 250.617188 232.183594 L 250.617188 233.65625 L 258.765625 233.65625 C 259.035156 233.65625 259.117188 233.707031 259.132812 233.714844 L 259.175781 233.757812 C 259.21875 233.820312 259.300781 234.007812 259.355469 234.328125 C 259.402344 234.640625 259.425781 235.066406 259.425781 235.546875 C 259.425781 235.972656 259.410156 236.355469 259.367188 236.652344 C 259.3125 237.113281 259.183594 237.335938 259.15625 237.355469 L 259.105469 237.390625 C 259.066406 237.40625 258.96875 237.4375 258.765625 237.4375 L 252.089844 237.4375 L 252.089844 232.183594 L 250.617188 232.183594 L 250.617188 233.65625 L 250.617188 232.183594 L 249.148438 232.183594 L 249.148438 238.910156 C 249.148438 239.296875 249.304688 239.675781 249.578125 239.949219 C 249.851562 240.222656 250.230469 240.382812 250.617188 240.382812 L 258.765625 240.382812 C 259.421875 240.382812 260.074219 240.242188 260.628906 239.910156 C 261.046875 239.664062 261.386719 239.320312 261.628906 238.949219 C 261.996094 238.394531 262.15625 237.808594 262.25 237.246094 C 262.347656 236.675781 262.367188 236.109375 262.367188 235.546875 C 262.367188 235.042969 262.351562 234.542969 262.28125 234.035156 C 262.175781 233.292969 261.96875 232.488281 261.355469 231.78125 C 261.054688 231.4375 260.648438 231.144531 260.195312 230.964844 C 259.742188 230.785156 259.261719 230.710938 258.765625 230.710938 L 250.617188 230.710938 C 250.230469 230.710938 249.851562 230.867188 249.578125 231.140625 C 249.304688 231.414062 249.148438 231.792969 249.148438 232.183594 L 250.617188 232.183594 " fill-opacity="1" fill-rule="nonzero"/><path fill="#fff" d="M 241.753906 123.46875 L 243.222656 123.46875 L 243.222656 115.308594 C 243.222656 114.648438 243.085938 114 242.753906 113.441406 C 242.507812 113.023438 242.164062 112.679688 241.796875 112.441406 C 241.242188 112.074219 240.65625 111.910156 240.089844 111.816406 C 239.523438 111.722656 238.957031 111.699219 238.390625 111.699219 C 237.890625 111.699219 237.390625 111.71875 236.886719 111.789062 C 236.140625 111.890625 235.335938 112.101562 234.632812 112.714844 C 234.289062 113.019531 234 113.425781 233.820312 113.875 C 233.640625 114.328125 233.566406 114.8125 233.566406 115.308594 L 233.566406 123.46875 C 233.566406 123.859375 233.722656 124.234375 234 124.511719 C 234.269531 124.785156 234.648438 124.9375 235.035156 124.9375 L 241.753906 124.9375 C 242.140625 124.9375 242.519531 124.785156 242.789062 124.511719 C 243.066406 124.234375 243.222656 123.859375 243.222656 123.46875 L 241.753906 123.46875 L 241.753906 121.996094 L 236.503906 121.996094 L 236.503906 115.308594 C 236.507812 115.039062 236.554688 114.960938 236.5625 114.941406 L 236.613281 114.898438 C 236.671875 114.855469 236.859375 114.769531 237.175781 114.722656 C 237.488281 114.667969 237.914062 114.644531 238.390625 114.644531 C 238.820312 114.644531 239.199219 114.664062 239.503906 114.707031 C 239.960938 114.761719 240.183594 114.890625 240.207031 114.917969 L 240.238281 114.964844 C 240.253906 115.007812 240.285156 115.109375 240.285156 115.308594 L 240.285156 123.46875 L 241.753906 123.46875 L 241.753906 121.996094 L 241.753906 123.46875 " fill-opacity="1" fill-rule="nonzero"/><path fill="#fff" d="M 227.519531 123.46875 L 228.988281 123.46875 L 228.988281 115.308594 C 228.988281 114.648438 228.851562 114 228.515625 113.441406 C 228.273438 113.023438 227.925781 112.679688 227.558594 112.441406 C 227 112.074219 226.417969 111.910156 225.851562 111.816406 C 225.285156 111.722656 224.71875 111.699219 224.15625 111.699219 C 223.65625 111.699219 223.152344 111.71875 222.648438 111.789062 C 221.902344 111.890625 221.097656 112.101562 220.394531 112.714844 C 220.050781 113.019531 219.761719 113.425781 219.582031 113.875 C 219.402344 114.328125 219.324219 114.8125 219.324219 115.308594 L 219.324219 123.46875 C 219.324219 123.859375 219.484375 124.238281 219.757812 124.511719 C 220.03125 124.785156 220.410156 124.9375 220.796875 124.9375 L 227.519531 124.9375 C 227.902344 124.9375 228.28125 124.785156 228.554688 124.511719 C 228.832031 124.234375 228.988281 123.859375 228.988281 123.46875 L 227.519531 123.46875 L 227.519531 121.996094 L 222.265625 121.996094 L 222.265625 115.308594 C 222.269531 115.039062 222.316406 114.957031 222.328125 114.941406 L 222.371094 114.898438 C 222.433594 114.855469 222.621094 114.769531 222.941406 114.722656 C 223.25 114.667969 223.675781 114.644531 224.15625 114.644531 C 224.582031 114.644531 224.964844 114.664062 225.265625 114.707031 C 225.726562 114.761719 225.949219 114.890625 225.96875 114.921875 L 226 114.96875 C 226.015625 115.007812 226.046875 115.109375 226.046875 115.308594 L 226.046875 123.46875 L 227.519531 123.46875 L 227.519531 121.996094 L 227.519531 123.46875 " fill-opacity="1" fill-rule="nonzero"/><path fill="#fff" d="M 213.273438 123.46875 L 214.746094 123.46875 L 214.746094 115.308594 C 214.746094 114.648438 214.605469 114 214.277344 113.441406 C 214.03125 113.023438 213.6875 112.679688 213.320312 112.441406 C 212.761719 112.074219 212.179688 111.910156 211.613281 111.816406 C 211.046875 111.722656 210.484375 111.699219 209.921875 111.699219 C 209.417969 111.699219 208.914062 111.71875 208.414062 111.789062 C 207.667969 111.890625 206.863281 112.101562 206.160156 112.710938 C 205.8125 113.015625 205.523438 113.421875 205.34375 113.875 C 205.164062 114.328125 205.089844 114.8125 205.089844 115.308594 L 205.089844 123.46875 C 205.089844 123.859375 205.242188 124.234375 205.519531 124.511719 C 205.792969 124.785156 206.167969 124.9375 206.558594 124.9375 L 213.273438 124.9375 C 213.664062 124.9375 214.039062 124.785156 214.316406 124.511719 C 214.585938 124.234375 214.746094 123.859375 214.746094 123.46875 L 213.273438 123.46875 L 213.273438 121.996094 L 208.03125 121.996094 L 208.03125 115.308594 C 208.03125 115.039062 208.078125 114.960938 208.085938 114.945312 L 208.132812 114.898438 C 208.195312 114.855469 208.386719 114.769531 208.699219 114.722656 C 209.015625 114.667969 209.4375 114.644531 209.921875 114.644531 C 210.347656 114.644531 210.730469 114.664062 211.027344 114.707031 C 211.488281 114.761719 211.707031 114.890625 211.726562 114.917969 L 211.757812 114.964844 C 211.773438 115.007812 211.804688 115.109375 211.804688 115.308594 L 211.804688 123.46875 L 213.273438 123.46875 L 213.273438 121.996094 L 213.273438 123.46875 " fill-opacity="1" fill-rule="nonzero"/><path fill="#fff" d="M 199.039062 123.46875 L 200.507812 123.46875 L 200.507812 115.308594 C 200.507812 114.648438 200.371094 113.996094 200.039062 113.441406 C 199.792969 113.023438 199.449219 112.679688 199.082031 112.441406 C 198.527344 112.074219 197.941406 111.910156 197.378906 111.816406 C 196.808594 111.722656 196.246094 111.699219 195.679688 111.699219 C 195.179688 111.699219 194.679688 111.71875 194.171875 111.789062 C 193.425781 111.890625 192.625 112.101562 191.917969 112.710938 C 191.574219 113.015625 191.285156 113.421875 191.105469 113.875 C 190.925781 114.328125 190.851562 114.8125 190.851562 115.308594 L 190.851562 123.46875 C 190.851562 123.859375 191.007812 124.234375 191.28125 124.511719 C 191.554688 124.785156 191.933594 124.9375 192.320312 124.9375 L 199.039062 124.9375 C 199.425781 124.9375 199.804688 124.785156 200.078125 124.511719 C 200.351562 124.234375 200.507812 123.859375 200.507812 123.46875 L 199.039062 123.46875 L 199.039062 121.996094 L 193.789062 121.996094 L 193.789062 115.308594 C 193.789062 115.039062 193.839844 114.960938 193.847656 114.945312 L 193.898438 114.898438 C 193.957031 114.855469 194.148438 114.769531 194.464844 114.722656 C 194.777344 114.667969 195.199219 114.644531 195.679688 114.644531 C 196.105469 114.644531 196.488281 114.664062 196.789062 114.707031 C 197.246094 114.761719 197.46875 114.890625 197.492188 114.921875 L 197.523438 114.96875 C 197.539062 115.007812 197.570312 115.109375 197.570312 115.308594 L 197.570312 123.46875 L 199.039062 123.46875 L 199.039062 121.996094 L 199.039062 123.46875 " fill-opacity="1" fill-rule="nonzero"/><path fill="#fff" d="M 184.800781 123.46875 L 186.269531 123.46875 L 186.269531 115.308594 C 186.273438 114.648438 186.132812 114 185.800781 113.441406 C 185.554688 113.023438 185.210938 112.679688 184.839844 112.441406 C 184.285156 112.074219 183.699219 111.910156 183.136719 111.816406 C 182.566406 111.722656 182.003906 111.699219 181.4375 111.699219 C 180.941406 111.699219 180.4375 111.71875 179.933594 111.789062 C 179.1875 111.890625 178.386719 112.101562 177.683594 112.714844 C 177.339844 113.019531 177.046875 113.425781 176.867188 113.875 C 176.6875 114.328125 176.613281 114.8125 176.613281 115.308594 L 176.613281 123.46875 C 176.613281 123.859375 176.769531 124.234375 177.042969 124.511719 C 177.316406 124.785156 177.695312 124.9375 178.082031 124.9375 L 184.800781 124.9375 C 185.1875 124.9375 185.566406 124.785156 185.839844 124.511719 C 186.113281 124.234375 186.269531 123.859375 186.269531 123.46875 L 184.800781 123.46875 L 184.800781 121.996094 L 179.550781 121.996094 L 179.550781 115.308594 C 179.554688 115.039062 179.601562 114.960938 179.613281 114.941406 L 179.664062 114.898438 C 179.71875 114.855469 179.90625 114.769531 180.226562 114.722656 C 180.539062 114.667969 180.960938 114.644531 181.4375 114.644531 C 181.867188 114.644531 182.25 114.664062 182.546875 114.707031 C 183.007812 114.761719 183.230469 114.890625 183.253906 114.921875 L 183.285156 114.964844 C 183.296875 115.007812 183.328125 115.109375 183.328125 115.308594 L 183.328125 123.46875 L 184.800781 123.46875 L 184.800781 121.996094 L 184.800781 123.46875 " fill-opacity="1" fill-rule="nonzero"/><path fill="#fff" d="M 170.5625 123.46875 L 172.035156 123.46875 L 172.035156 115.308594 C 172.035156 114.648438 171.894531 114 171.5625 113.441406 C 171.316406 113.023438 170.972656 112.679688 170.605469 112.441406 C 170.046875 112.074219 169.464844 111.910156 168.898438 111.816406 C 168.332031 111.722656 167.765625 111.699219 167.203125 111.699219 C 166.699219 111.699219 166.199219 111.71875 165.699219 111.789062 C 164.953125 111.890625 164.148438 112.101562 163.445312 112.710938 C 163.097656 113.015625 162.808594 113.421875 162.628906 113.875 C 162.449219 114.328125 162.371094 114.8125 162.371094 115.308594 L 162.371094 123.46875 C 162.371094 123.859375 162.527344 124.238281 162.804688 124.511719 C 163.078125 124.785156 163.457031 124.9375 163.839844 124.9375 L 170.5625 124.9375 C 170.949219 124.9375 171.328125 124.785156 171.601562 124.511719 C 171.875 124.234375 172.035156 123.859375 172.035156 123.46875 L 170.5625 123.46875 L 170.5625 121.996094 L 165.3125 121.996094 L 165.3125 115.308594 C 165.316406 115.039062 165.367188 114.960938 165.371094 114.941406 L 165.417969 114.898438 C 165.480469 114.855469 165.671875 114.769531 165.984375 114.722656 C 166.300781 114.667969 166.722656 114.644531 167.203125 114.644531 C 167.632812 114.644531 168.011719 114.664062 168.3125 114.707031 C 168.773438 114.761719 168.992188 114.890625 169.015625 114.921875 L 169.046875 114.96875 C 169.0625 115.007812 169.09375 115.109375 169.09375 115.308594 L 169.09375 123.46875 L 170.5625 123.46875 L 170.5625 121.996094 L 170.5625 123.46875 " fill-opacity="1" fill-rule="nonzero"/><path fill="#fff" d="M 156.324219 123.46875 L 157.792969 123.46875 L 157.792969 115.308594 C 157.796875 114.648438 157.65625 113.996094 157.328125 113.441406 C 157.082031 113.023438 156.734375 112.679688 156.367188 112.441406 C 155.8125 112.074219 155.226562 111.910156 154.660156 111.816406 C 154.09375 111.722656 153.53125 111.699219 152.96875 111.699219 C 152.464844 111.699219 151.964844 111.71875 151.457031 111.789062 C 150.710938 111.890625 149.910156 112.101562 149.203125 112.710938 C 148.859375 113.019531 148.570312 113.421875 148.394531 113.875 C 148.210938 114.328125 148.136719 114.8125 148.136719 115.308594 L 148.136719 123.46875 C 148.136719 123.859375 148.292969 124.234375 148.566406 124.511719 C 148.839844 124.785156 149.21875 124.9375 149.605469 124.9375 L 156.324219 124.9375 C 156.714844 124.9375 157.089844 124.785156 157.363281 124.511719 C 157.636719 124.234375 157.792969 123.859375 157.792969 123.46875 L 156.324219 123.46875 L 156.324219 121.996094 L 151.074219 121.996094 L 151.074219 115.308594 C 151.078125 115.039062 151.125 114.960938 151.132812 114.941406 L 151.183594 114.898438 C 151.246094 114.855469 151.433594 114.769531 151.75 114.722656 C 152.0625 114.667969 152.484375 114.644531 152.96875 114.644531 C 153.390625 114.644531 153.773438 114.664062 154.074219 114.707031 C 154.53125 114.761719 154.757812 114.890625 154.777344 114.921875 L 154.808594 114.96875 C 154.824219 115.007812 154.855469 115.109375 154.855469 115.308594 L 154.855469 123.46875 L 156.324219 123.46875 L 156.324219 121.996094 L 156.324219 123.46875 " fill-opacity="1" fill-rule="nonzero"/><path fill="#fff" d="M 142.085938 123.46875 L 143.554688 123.46875 L 143.554688 115.308594 C 143.558594 114.648438 143.417969 114 143.085938 113.441406 C 142.84375 113.023438 142.496094 112.679688 142.128906 112.441406 C 141.570312 112.074219 140.988281 111.910156 140.421875 111.816406 C 139.855469 111.722656 139.289062 111.699219 138.726562 111.699219 C 138.226562 111.699219 137.722656 111.71875 137.21875 111.789062 C 136.476562 111.890625 135.671875 112.101562 134.96875 112.710938 C 134.625 113.015625 134.332031 113.421875 134.152344 113.875 C 133.972656 114.328125 133.898438 114.8125 133.898438 115.308594 L 133.898438 123.46875 C 133.898438 123.859375 134.054688 124.234375 134.328125 124.511719 C 134.601562 124.785156 134.980469 124.9375 135.367188 124.9375 L 142.085938 124.9375 C 142.476562 124.9375 142.851562 124.785156 143.125 124.511719 C 143.402344 124.234375 143.554688 123.859375 143.554688 123.46875 L 142.085938 123.46875 L 142.085938 121.996094 L 136.835938 121.996094 L 136.835938 115.308594 C 136.839844 115.039062 136.886719 114.960938 136.894531 114.945312 L 136.945312 114.898438 C 137.003906 114.855469 137.195312 114.769531 137.511719 114.722656 C 137.824219 114.667969 138.246094 114.644531 138.726562 114.644531 C 139.15625 114.644531 139.535156 114.664062 139.832031 114.707031 C 140.296875 114.761719 140.519531 114.890625 140.539062 114.917969 L 140.570312 114.964844 C 140.585938 115.007812 140.613281 115.109375 140.613281 115.308594 L 140.613281 123.46875 L 142.085938 123.46875 L 142.085938 121.996094 L 142.085938 123.46875 " fill-opacity="1" fill-rule="nonzero"/><path fill="#fff" d="M 241.753906 247.789062 L 240.285156 247.789062 L 240.285156 255.949219 C 240.28125 256.214844 240.234375 256.300781 240.222656 256.316406 L 240.171875 256.363281 C 240.113281 256.402344 239.921875 256.488281 239.609375 256.539062 C 239.296875 256.589844 238.871094 256.613281 238.390625 256.613281 C 237.96875 256.613281 237.585938 256.597656 237.285156 256.558594 C 236.828125 256.496094 236.605469 256.371094 236.585938 256.339844 L 236.550781 256.289062 C 236.535156 256.25 236.503906 256.148438 236.503906 255.949219 L 236.503906 249.261719 L 241.753906 249.261719 L 241.753906 247.789062 L 240.285156 247.789062 L 241.753906 247.789062 L 241.753906 246.316406 L 235.035156 246.316406 C 234.648438 246.316406 234.269531 246.472656 234 246.746094 C 233.722656 247.019531 233.566406 247.398438 233.566406 247.789062 L 233.566406 255.949219 C 233.566406 256.605469 233.703125 257.257812 234.035156 257.816406 C 234.277344 258.234375 234.621094 258.574219 234.988281 258.816406 C 235.542969 259.183594 236.128906 259.347656 236.695312 259.445312 C 237.261719 259.539062 237.828125 259.558594 238.390625 259.558594 C 238.894531 259.558594 239.394531 259.542969 239.902344 259.476562 C 240.648438 259.363281 241.449219 259.15625 242.15625 258.542969 C 242.5 258.242188 242.789062 257.832031 242.964844 257.382812 C 243.148438 256.929688 243.222656 256.441406 243.222656 255.949219 L 243.222656 247.789062 C 243.222656 247.402344 243.066406 247.023438 242.789062 246.746094 C 242.519531 246.472656 242.140625 246.316406 241.753906 246.316406 L 241.753906 247.789062 " fill-opacity="1" fill-rule="nonzero"/><path fill="#fff" d="M 227.519531 247.789062 L 226.046875 247.789062 L 226.046875 255.949219 C 226.042969 256.214844 225.996094 256.300781 225.988281 256.316406 L 225.9375 256.363281 C 225.878906 256.402344 225.6875 256.488281 225.371094 256.539062 C 225.058594 256.589844 224.636719 256.613281 224.15625 256.613281 C 223.726562 256.613281 223.347656 256.597656 223.046875 256.558594 C 222.585938 256.496094 222.371094 256.371094 222.347656 256.339844 L 222.3125 256.289062 C 222.296875 256.25 222.265625 256.148438 222.265625 255.949219 L 222.265625 249.261719 L 227.519531 249.261719 L 227.519531 247.789062 L 226.046875 247.789062 L 227.519531 247.789062 L 227.519531 246.316406 L 220.796875 246.316406 C 220.410156 246.316406 220.03125 246.472656 219.757812 246.746094 C 219.484375 247.019531 219.324219 247.398438 219.324219 247.789062 L 219.324219 255.949219 C 219.324219 256.605469 219.464844 257.257812 219.796875 257.816406 C 220.042969 258.234375 220.382812 258.574219 220.75 258.816406 C 221.308594 259.183594 221.890625 259.347656 222.457031 259.445312 C 223.027344 259.539062 223.589844 259.558594 224.15625 259.558594 C 224.660156 259.558594 225.160156 259.542969 225.664062 259.476562 C 226.410156 259.363281 227.214844 259.15625 227.917969 258.542969 C 228.265625 258.242188 228.550781 257.832031 228.730469 257.382812 C 228.910156 256.929688 228.988281 256.441406 228.988281 255.949219 L 228.988281 247.789062 C 228.988281 247.402344 228.832031 247.019531 228.554688 246.746094 C 228.28125 246.472656 227.902344 246.316406 227.519531 246.316406 L 227.519531 247.789062 " fill-opacity="1" fill-rule="nonzero"/><path fill="#fff" d="M 213.273438 247.789062 L 211.804688 247.789062 L 211.804688 255.949219 C 211.804688 256.214844 211.753906 256.300781 211.746094 256.316406 L 211.695312 256.363281 C 211.636719 256.40625 211.449219 256.488281 211.132812 256.539062 C 210.820312 256.589844 210.398438 256.613281 209.921875 256.613281 C 209.492188 256.613281 209.109375 256.597656 208.8125 256.558594 C 208.351562 256.496094 208.128906 256.371094 208.105469 256.339844 L 208.074219 256.289062 C 208.058594 256.25 208.03125 256.148438 208.03125 255.949219 L 208.03125 249.261719 L 213.273438 249.261719 L 213.273438 247.789062 L 211.804688 247.789062 L 213.273438 247.789062 L 213.273438 246.316406 L 206.558594 246.316406 C 206.167969 246.316406 205.789062 246.472656 205.519531 246.746094 C 205.242188 247.019531 205.089844 247.398438 205.089844 247.789062 L 205.089844 255.949219 C 205.085938 256.605469 205.226562 257.257812 205.558594 257.816406 C 205.800781 258.234375 206.148438 258.574219 206.515625 258.820312 C 207.070312 259.183594 207.65625 259.347656 208.222656 259.445312 C 208.789062 259.539062 209.355469 259.558594 209.921875 259.558594 C 210.417969 259.558594 210.921875 259.542969 211.425781 259.476562 C 212.171875 259.363281 212.976562 259.15625 213.679688 258.542969 C 214.019531 258.242188 214.3125 257.832031 214.492188 257.382812 C 214.671875 256.929688 214.746094 256.441406 214.746094 255.949219 L 214.746094 247.789062 C 214.746094 247.402344 214.585938 247.023438 214.316406 246.746094 C 214.039062 246.472656 213.664062 246.316406 213.273438 246.316406 L 213.273438 247.789062 " fill-opacity="1" fill-rule="nonzero"/><path fill="#fff" d="M 199.039062 247.789062 L 197.570312 247.789062 L 197.570312 255.949219 C 197.570312 256.214844 197.519531 256.296875 197.511719 256.316406 L 197.460938 256.363281 C 197.398438 256.40625 197.207031 256.488281 196.894531 256.539062 C 196.582031 256.589844 196.160156 256.613281 195.679688 256.613281 C 195.257812 256.613281 194.875 256.597656 194.574219 256.558594 C 194.117188 256.496094 193.890625 256.371094 193.871094 256.339844 L 193.835938 256.289062 C 193.820312 256.246094 193.789062 256.148438 193.789062 255.949219 L 193.789062 249.261719 L 199.039062 249.261719 L 199.039062 247.789062 L 197.570312 247.789062 L 199.039062 247.789062 L 199.039062 246.316406 L 192.320312 246.316406 C 191.929688 246.316406 191.554688 246.472656 191.28125 246.746094 C 191.007812 247.019531 190.851562 247.398438 190.851562 247.789062 L 190.851562 255.949219 C 190.847656 256.605469 190.988281 257.257812 191.316406 257.816406 C 191.5625 258.234375 191.90625 258.574219 192.277344 258.820312 C 192.832031 259.183594 193.417969 259.347656 193.980469 259.445312 C 194.550781 259.539062 195.117188 259.558594 195.679688 259.558594 C 196.183594 259.558594 196.683594 259.542969 197.191406 259.476562 C 197.933594 259.363281 198.734375 259.15625 199.441406 258.542969 C 199.785156 258.242188 200.074219 257.832031 200.253906 257.382812 C 200.433594 256.929688 200.507812 256.441406 200.507812 255.949219 L 200.507812 247.789062 C 200.507812 247.402344 200.351562 247.023438 200.078125 246.746094 C 199.804688 246.472656 199.425781 246.316406 199.039062 246.316406 L 199.039062 247.789062 " fill-opacity="1" fill-rule="nonzero"/><path fill="#fff" d="M 184.800781 247.789062 L 183.328125 247.789062 L 183.328125 255.949219 C 183.328125 256.214844 183.28125 256.300781 183.273438 256.316406 L 183.222656 256.363281 C 183.160156 256.40625 182.972656 256.488281 182.65625 256.539062 C 182.339844 256.589844 181.921875 256.613281 181.4375 256.613281 C 181.011719 256.613281 180.632812 256.597656 180.335938 256.558594 C 179.875 256.496094 179.65625 256.371094 179.632812 256.339844 L 179.601562 256.289062 C 179.582031 256.25 179.550781 256.148438 179.550781 255.949219 L 179.550781 249.261719 L 184.800781 249.261719 L 184.800781 247.789062 L 183.328125 247.789062 L 184.800781 247.789062 L 184.800781 246.316406 L 178.082031 246.316406 C 177.695312 246.316406 177.316406 246.472656 177.042969 246.746094 C 176.769531 247.019531 176.613281 247.398438 176.613281 247.789062 L 176.613281 255.949219 C 176.613281 256.605469 176.75 257.257812 177.082031 257.816406 C 177.328125 258.234375 177.671875 258.574219 178.039062 258.816406 C 178.59375 259.183594 179.179688 259.347656 179.742188 259.445312 C 180.3125 259.539062 180.875 259.558594 181.4375 259.558594 C 181.945312 259.558594 182.445312 259.542969 182.945312 259.476562 C 183.695312 259.363281 184.496094 259.15625 185.199219 258.542969 C 185.546875 258.242188 185.835938 257.832031 186.011719 257.382812 C 186.195312 256.929688 186.269531 256.441406 186.269531 255.949219 L 186.269531 247.789062 C 186.269531 247.402344 186.113281 247.023438 185.839844 246.746094 C 185.566406 246.472656 185.1875 246.316406 184.800781 246.316406 L 184.800781 247.789062 " fill-opacity="1" fill-rule="nonzero"/><path fill="#fff" d="M 170.5625 247.789062 L 169.09375 247.789062 L 169.09375 255.949219 C 169.09375 256.214844 169.042969 256.300781 169.03125 256.316406 L 168.984375 256.363281 C 168.925781 256.402344 168.734375 256.488281 168.417969 256.539062 C 168.105469 256.589844 167.679688 256.613281 167.203125 256.613281 C 166.777344 256.613281 166.394531 256.597656 166.097656 256.558594 C 165.636719 256.496094 165.414062 256.371094 165.390625 256.339844 L 165.359375 256.289062 C 165.34375 256.25 165.3125 256.148438 165.3125 255.949219 L 165.3125 249.261719 L 170.5625 249.261719 L 170.5625 247.789062 L 169.09375 247.789062 L 170.5625 247.789062 L 170.5625 246.316406 L 163.839844 246.316406 C 163.457031 246.316406 163.078125 246.472656 162.804688 246.746094 C 162.527344 247.019531 162.371094 247.398438 162.371094 247.789062 L 162.371094 255.949219 C 162.371094 256.605469 162.511719 257.257812 162.84375 257.816406 C 163.085938 258.234375 163.433594 258.574219 163.800781 258.820312 C 164.355469 259.183594 164.941406 259.347656 165.507812 259.445312 C 166.074219 259.539062 166.640625 259.558594 167.203125 259.558594 C 167.703125 259.558594 168.207031 259.542969 168.710938 259.476562 C 169.457031 259.363281 170.261719 259.15625 170.964844 258.542969 C 171.308594 258.242188 171.601562 257.832031 171.777344 257.382812 C 171.957031 256.929688 172.035156 256.441406 172.035156 255.949219 L 172.035156 247.789062 C 172.035156 247.402344 171.875 247.019531 171.601562 246.746094 C 171.328125 246.472656 170.949219 246.316406 170.5625 246.316406 L 170.5625 247.789062 " fill-opacity="1" fill-rule="nonzero"/><path fill="#fff" d="M 156.324219 247.789062 L 154.855469 247.789062 L 154.855469 255.949219 C 154.855469 256.214844 154.804688 256.296875 154.796875 256.316406 L 154.746094 256.363281 C 154.6875 256.40625 154.496094 256.488281 154.179688 256.539062 C 153.867188 256.589844 153.445312 256.613281 152.96875 256.613281 C 152.539062 256.613281 152.160156 256.597656 151.855469 256.558594 C 151.398438 256.496094 151.175781 256.371094 151.15625 256.339844 L 151.121094 256.289062 C 151.105469 256.25 151.074219 256.148438 151.074219 255.949219 L 151.074219 249.261719 L 156.324219 249.261719 L 156.324219 247.789062 L 154.855469 247.789062 L 156.324219 247.789062 L 156.324219 246.316406 L 149.605469 246.316406 C 149.21875 246.316406 148.839844 246.472656 148.566406 246.746094 C 148.292969 247.019531 148.136719 247.398438 148.136719 247.789062 L 148.136719 255.949219 C 148.136719 256.605469 148.273438 257.257812 148.601562 257.816406 C 148.847656 258.234375 149.191406 258.574219 149.558594 258.816406 C 150.117188 259.183594 150.699219 259.347656 151.265625 259.445312 C 151.832031 259.539062 152.402344 259.558594 152.96875 259.558594 C 153.46875 259.558594 153.96875 259.542969 154.476562 259.476562 C 155.21875 259.363281 156.023438 259.15625 156.726562 258.542969 C 157.070312 258.242188 157.359375 257.832031 157.539062 257.382812 C 157.71875 256.929688 157.792969 256.441406 157.792969 255.949219 L 157.792969 247.789062 C 157.792969 247.402344 157.636719 247.023438 157.363281 246.746094 C 157.089844 246.472656 156.714844 246.316406 156.324219 246.316406 L 156.324219 247.789062 " fill-opacity="1" fill-rule="nonzero"/><path fill="#fff" d="M 142.085938 247.789062 L 140.613281 247.789062 L 140.613281 255.949219 C 140.613281 256.214844 140.566406 256.300781 140.558594 256.316406 L 140.507812 256.363281 C 140.445312 256.40625 140.257812 256.488281 139.941406 256.539062 C 139.628906 256.589844 139.207031 256.613281 138.726562 256.613281 C 138.300781 256.613281 137.917969 256.597656 137.621094 256.558594 C 137.160156 256.496094 136.941406 256.371094 136.917969 256.339844 L 136.882812 256.289062 C 136.867188 256.25 136.835938 256.148438 136.835938 255.949219 L 136.835938 249.261719 L 142.085938 249.261719 L 142.085938 247.789062 L 140.613281 247.789062 L 142.085938 247.789062 L 142.085938 246.316406 L 135.367188 246.316406 C 134.980469 246.316406 134.601562 246.472656 134.328125 246.746094 C 134.054688 247.019531 133.898438 247.398438 133.898438 247.789062 L 133.898438 255.949219 C 133.898438 256.605469 134.035156 257.257812 134.367188 257.816406 C 134.613281 258.234375 134.957031 258.574219 135.324219 258.820312 C 135.878906 259.183594 136.464844 259.347656 137.03125 259.445312 C 137.597656 259.539062 138.164062 259.558594 138.726562 259.558594 C 139.230469 259.558594 139.730469 259.542969 140.234375 259.476562 C 140.980469 259.363281 141.785156 259.15625 142.488281 258.542969 C 142.835938 258.242188 143.121094 257.832031 143.300781 257.382812 C 143.480469 256.929688 143.554688 256.441406 143.554688 255.949219 L 143.554688 247.789062 C 143.554688 247.402344 143.402344 247.023438 143.125 246.746094 C 142.851562 246.472656 142.476562 246.316406 142.085938 246.316406 L 142.085938 247.789062 " fill-opacity="1" fill-rule="nonzero"/><path fill="#fff" d="M 154.4375 309.761719 L 154.4375 258.085938 C 154.4375 257.273438 153.777344 256.613281 152.96875 256.613281 C 152.15625 256.613281 151.496094 257.273438 151.496094 258.085938 L 151.496094 309.761719 C 151.496094 310.574219 152.15625 311.234375 152.96875 311.234375 C 153.777344 311.234375 154.4375 310.574219 154.4375 309.761719 " fill-opacity="1" fill-rule="nonzero"/><path fill="#fff" d="M 168.671875 342.371094 L 168.671875 258.085938 C 168.671875 257.273438 168.015625 256.613281 167.203125 256.613281 C 166.390625 256.613281 165.734375 257.273438 165.734375 258.085938 L 165.734375 342.371094 C 165.734375 343.183594 166.390625 343.84375 167.203125 343.84375 C 168.015625 343.84375 168.671875 343.183594 168.671875 342.371094 " fill-opacity="1" fill-rule="nonzero"/><path fill="#fff" d="M 236.921875 258.085938 L 236.921875 318.296875 C 236.921875 319.109375 237.582031 319.769531 238.390625 319.769531 C 239.203125 319.769531 239.863281 319.109375 239.863281 318.296875 L 239.863281 258.085938 C 239.863281 257.273438 239.203125 256.613281 238.390625 256.613281 C 237.582031 256.613281 236.921875 257.273438 236.921875 258.085938 " fill-opacity="1" fill-rule="nonzero"/><path fill="#fff" d="M 225.625 309.761719 L 225.625 258.085938 C 225.625 257.273438 224.96875 256.613281 224.15625 256.613281 C 223.34375 256.613281 222.6875 257.273438 222.6875 258.085938 L 222.6875 309.761719 C 222.6875 310.574219 223.34375 311.234375 224.15625 311.234375 C 224.96875 311.234375 225.625 310.574219 225.625 309.761719 " fill-opacity="1" fill-rule="nonzero"/><path fill="#fff" d="M 211.390625 293.703125 L 211.390625 258.085938 C 211.390625 257.273438 210.734375 256.613281 209.921875 256.613281 C 209.105469 256.613281 208.453125 257.273438 208.453125 258.085938 L 208.453125 293.703125 C 208.453125 294.515625 209.105469 295.175781 209.921875 295.175781 C 210.734375 295.175781 211.390625 294.515625 211.390625 293.703125 " fill-opacity="1" fill-rule="nonzero"/><path fill="#fff" d="M 140.195312 113.171875 L 140.195312 64.367188 C 140.195312 63.554688 139.535156 62.894531 138.722656 62.894531 C 137.914062 62.894531 137.253906 63.554688 137.253906 64.367188 L 137.253906 113.171875 C 137.253906 113.984375 137.914062 114.644531 138.722656 114.644531 C 139.535156 114.644531 140.195312 113.984375 140.195312 113.171875 " fill-opacity="1" fill-rule="nonzero"/><path fill="#fff" d="M 151.496094 32.769531 L 151.496094 113.171875 C 151.496094 113.984375 152.15625 114.644531 152.96875 114.644531 C 153.777344 114.644531 154.4375 113.984375 154.4375 113.171875 L 154.4375 32.769531 C 154.4375 31.957031 153.777344 31.296875 152.96875 31.296875 C 152.15625 31.296875 151.496094 31.957031 151.496094 32.769531 " fill-opacity="1" fill-rule="nonzero"/><path fill="#fff" d="M 165.734375 76.28125 L 165.734375 113.171875 C 165.734375 113.984375 166.390625 114.644531 167.203125 114.644531 C 168.015625 114.644531 168.671875 113.984375 168.671875 113.171875 L 168.671875 76.28125 C 168.671875 75.46875 168.015625 74.808594 167.203125 74.808594 C 166.390625 74.808594 165.734375 75.46875 165.734375 76.28125 " fill-opacity="1" fill-rule="nonzero"/><path fill="#fff" d="M 236.921875 76.878906 L 236.921875 113.171875 C 236.921875 113.984375 237.582031 114.644531 238.390625 114.644531 C 239.203125 114.644531 239.863281 113.984375 239.863281 113.171875 L 239.863281 76.878906 C 239.863281 76.066406 239.203125 75.40625 238.390625 75.40625 C 237.582031 75.40625 236.921875 76.066406 236.921875 76.878906 " fill-opacity="1" fill-rule="nonzero"/><path fill="#fff" d="M 222.6875 32.769531 L 222.6875 113.171875 C 222.6875 113.984375 223.34375 114.644531 224.15625 114.644531 C 224.96875 114.644531 225.625 113.984375 225.625 113.171875 L 225.625 32.769531 C 225.625 31.957031 224.96875 31.296875 224.15625 31.296875 C 223.34375 31.296875 222.6875 31.957031 222.6875 32.769531 " fill-opacity="1" fill-rule="nonzero"/><path fill="#fff" d="M 208.453125 46.847656 L 208.453125 113.171875 C 208.453125 113.984375 209.105469 114.644531 209.921875 114.644531 C 210.734375 114.644531 211.390625 113.984375 211.390625 113.171875 L 211.390625 46.847656 C 211.390625 46.027344 210.734375 45.375 209.921875 45.375 C 209.105469 45.375 208.453125 46.027344 208.453125 46.847656 " fill-opacity="1" fill-rule="nonzero"/><path fill="#fff" d="M 309.011719 234.074219 L 260.859375 234.074219 C 260.046875 234.074219 259.386719 234.734375 259.386719 235.546875 C 259.386719 236.359375 260.046875 237.019531 260.859375 237.019531 L 309.011719 237.019531 C 309.824219 237.019531 310.480469 236.359375 310.480469 235.546875 C 310.480469 234.734375 309.824219 234.074219 309.011719 234.074219 " fill-opacity="1" fill-rule="nonzero"/><path fill="#fff" d="M 344.46875 219.808594 L 260.859375 219.808594 C 260.046875 219.808594 259.386719 220.464844 259.386719 221.28125 C 259.386719 222.097656 260.046875 222.75 260.859375 222.75 L 344.46875 222.75 C 345.28125 222.75 345.9375 222.097656 345.9375 221.28125 C 345.9375 220.464844 345.28125 219.808594 344.46875 219.808594 " fill-opacity="1" fill-rule="nonzero"/><path fill="#fff" d="M 344.46875 205.546875 L 260.859375 205.546875 C 260.046875 205.546875 259.386719 206.207031 259.386719 207.019531 C 259.386719 207.832031 260.046875 208.492188 260.859375 208.492188 L 344.46875 208.492188 C 345.28125 208.492188 345.9375 207.832031 345.9375 207.019531 C 345.9375 206.207031 345.28125 205.546875 344.46875 205.546875 " fill-opacity="1" fill-rule="nonzero"/><path fill="#fff" d="M 283.308594 191.289062 L 260.859375 191.289062 C 260.046875 191.289062 259.386719 191.949219 259.386719 192.761719 C 259.386719 193.574219 260.046875 194.234375 260.859375 194.234375 L 283.308594 194.234375 C 284.121094 194.234375 284.777344 193.574219 284.777344 192.761719 C 284.777344 191.949219 284.121094 191.289062 283.308594 191.289062 " fill-opacity="1" fill-rule="nonzero"/><path fill="#fff" d="M 334.632812 177.027344 L 260.859375 177.027344 C 260.046875 177.027344 259.386719 177.683594 259.386719 178.5 C 259.386719 179.316406 260.046875 179.96875 260.859375 179.96875 L 334.632812 179.96875 C 335.441406 179.96875 336.101562 179.316406 336.101562 178.5 C 336.101562 177.683594 335.441406 177.027344 334.632812 177.027344 " fill-opacity="1" fill-rule="nonzero"/><path fill="#fff" d="M 324.796875 162.761719 L 260.859375 162.761719 C 260.046875 162.761719 259.386719 163.421875 259.386719 164.234375 C 259.386719 165.046875 260.046875 165.707031 260.859375 165.707031 L 324.796875 165.707031 C 325.609375 165.707031 326.269531 165.046875 326.269531 164.234375 C 326.269531 163.421875 325.609375 162.761719 324.796875 162.761719 " fill-opacity="1" fill-rule="nonzero"/><path fill="#fff" d="M 334.632812 148.503906 L 260.859375 148.503906 C 260.046875 148.503906 259.386719 149.164062 259.386719 149.976562 C 259.386719 150.789062 260.046875 151.449219 260.859375 151.449219 L 334.632812 151.449219 C 335.441406 151.449219 336.101562 150.789062 336.101562 149.976562 C 336.101562 149.164062 335.441406 148.503906 334.632812 148.503906 " fill-opacity="1" fill-rule="nonzero"/><path fill="#fff" d="M 304.089844 134.242188 L 260.859375 134.242188 C 260.046875 134.242188 259.386719 134.898438 259.386719 135.714844 C 259.386719 136.527344 260.046875 137.183594 260.859375 137.183594 L 304.089844 137.183594 C 304.902344 137.183594 305.558594 136.527344 305.558594 135.714844 C 305.558594 134.898438 304.902344 134.242188 304.089844 134.242188 " fill-opacity="1" fill-rule="nonzero"/><path fill="#fff" d="M 116.222656 234.074219 L 59.199219 234.074219 C 58.390625 234.074219 57.730469 234.734375 57.730469 235.546875 C 57.730469 236.359375 58.390625 237.019531 59.199219 237.019531 L 116.222656 237.019531 C 117.035156 237.019531 117.695312 236.359375 117.695312 235.546875 C 117.695312 234.734375 117.035156 234.074219 116.222656 234.074219 " fill-opacity="1" fill-rule="nonzero"/><path fill="#fff" d="M 116.222656 219.808594 L 30.308594 219.808594 C 29.496094 219.808594 28.839844 220.464844 28.839844 221.28125 C 28.839844 222.097656 29.496094 222.75 30.308594 222.75 L 116.222656 222.75 C 117.035156 222.75 117.695312 222.097656 117.695312 221.28125 C 117.695312 220.464844 117.035156 219.808594 116.222656 219.808594 " fill-opacity="1" fill-rule="nonzero"/><path fill="#fff" d="M 116.222656 205.546875 L 87.402344 205.546875 C 86.59375 205.546875 85.933594 206.207031 85.933594 207.019531 C 85.933594 207.832031 86.59375 208.492188 87.402344 208.492188 L 116.222656 208.492188 C 117.035156 208.492188 117.695312 207.832031 117.695312 207.019531 C 117.695312 206.207031 117.035156 205.546875 116.222656 205.546875 " fill-opacity="1" fill-rule="nonzero"/><path fill="#fff" d="M 116.222656 191.289062 L 42.644531 191.289062 C 41.832031 191.289062 41.175781 191.949219 41.175781 192.761719 C 41.175781 193.574219 41.832031 194.234375 42.644531 194.234375 L 116.222656 194.234375 C 117.035156 194.234375 117.695312 193.574219 117.695312 192.761719 C 117.695312 191.949219 117.035156 191.289062 116.222656 191.289062 " fill-opacity="1" fill-rule="nonzero"/><path fill="#fff" d="M 116.222656 177.027344 L 59.199219 177.027344 C 58.390625 177.027344 57.730469 177.683594 57.730469 178.5 C 57.730469 179.316406 58.390625 179.96875 59.199219 179.96875 L 116.222656 179.96875 C 117.035156 179.96875 117.695312 179.316406 117.695312 178.5 C 117.695312 177.683594 117.035156 177.027344 116.222656 177.027344 " fill-opacity="1" fill-rule="nonzero"/><path fill="#fff" d="M 116.222656 162.761719 L 59.199219 162.761719 C 58.390625 162.761719 57.730469 163.421875 57.730469 164.234375 C 57.730469 165.046875 58.390625 165.707031 59.199219 165.707031 L 116.222656 165.707031 C 117.035156 165.707031 117.695312 165.046875 117.695312 164.234375 C 117.695312 163.421875 117.035156 162.761719 116.222656 162.761719 " fill-opacity="1" fill-rule="nonzero"/><path fill="#fff" d="M 116.222656 148.503906 L 42.644531 148.503906 C 41.832031 148.503906 41.175781 149.164062 41.175781 149.976562 C 41.175781 150.789062 41.832031 151.449219 42.644531 151.449219 L 116.222656 151.449219 C 117.035156 151.449219 117.695312 150.789062 117.695312 149.976562 C 117.695312 149.164062 117.035156 148.503906 116.222656 148.503906 " fill-opacity="1" fill-rule="nonzero"/><path fill="#fff" d="M 116.222656 134.242188 L 84.007812 134.242188 C 83.195312 134.242188 82.539062 134.898438 82.539062 135.714844 C 82.539062 136.527344 83.195312 137.183594 84.007812 137.183594 L 116.222656 137.183594 C 117.035156 137.183594 117.695312 136.527344 117.695312 135.714844 C 117.695312 134.898438 117.035156 134.242188 116.222656 134.242188 " fill-opacity="1" fill-rule="nonzero"/><path fill="#fff" d="M 179.96875 258.085938 L 179.96875 323.28125 C 179.96875 324.09375 180.625 324.753906 181.4375 324.753906 C 182.253906 324.753906 182.90625 324.09375 182.90625 323.28125 L 182.90625 258.085938 C 182.90625 257.273438 182.253906 256.613281 181.4375 256.613281 C 180.625 256.613281 179.96875 257.273438 179.96875 258.085938 " fill-opacity="1" fill-rule="nonzero"/><path fill="#fff" d="M 194.210938 258.085938 L 194.210938 337.441406 C 194.210938 338.253906 194.871094 338.914062 195.679688 338.914062 C 196.492188 338.914062 197.152344 338.253906 197.152344 337.441406 L 197.152344 258.085938 C 197.152344 257.273438 196.492188 256.613281 195.679688 256.613281 C 194.871094 256.613281 194.210938 257.273438 194.210938 258.085938 " fill-opacity="1" fill-rule="nonzero"/><path fill="#fff" d="M 179.96875 76.28125 L 179.96875 113.171875 C 179.96875 113.984375 180.625 114.644531 181.4375 114.644531 C 182.253906 114.644531 182.90625 113.984375 182.90625 113.171875 L 182.90625 76.28125 C 182.90625 75.46875 182.253906 74.808594 181.4375 74.808594 C 180.625 74.808594 179.96875 75.46875 179.96875 76.28125 " fill-opacity="1" fill-rule="nonzero"/><path fill="#fff" d="M 194.210938 32.769531 L 194.210938 113.171875 C 194.210938 113.984375 194.871094 114.644531 195.679688 114.644531 C 196.492188 114.644531 197.152344 113.984375 197.152344 113.171875 L 197.152344 32.769531 C 197.152344 31.957031 196.492188 31.296875 195.679688 31.296875 C 194.871094 31.296875 194.210938 31.957031 194.210938 32.769531 " fill-opacity="1" fill-rule="nonzero"/><path fill="#fff" d="M 140.195312 283.847656 L 140.195312 258.085938 C 140.195312 257.273438 139.535156 256.613281 138.722656 256.613281 C 137.914062 256.613281 137.253906 257.273438 137.253906 258.085938 L 137.253906 283.847656 C 137.253906 284.660156 137.914062 285.320312 138.722656 285.320312 C 139.535156 285.320312 140.195312 284.660156 140.195312 283.847656 " fill-opacity="1" fill-rule="nonzero"/><path fill="#fff" d="M 84.007812 135.714844 L 82.539062 135.714844 C 82.535156 136.671875 82.15625 137.523438 81.527344 138.15625 C 80.902344 138.78125 80.046875 139.164062 79.089844 139.167969 C 78.132812 139.164062 77.28125 138.78125 76.652344 138.15625 C 76.027344 137.523438 75.644531 136.671875 75.644531 135.714844 C 75.644531 133.808594 77.1875 132.265625 79.089844 132.261719 C 80.996094 132.265625 82.535156 133.804688 82.539062 135.714844 L 85.480469 135.714844 C 85.480469 132.179688 82.621094 129.316406 79.089844 129.316406 C 75.566406 129.316406 72.707031 132.179688 72.707031 135.714844 C 72.707031 139.246094 75.5625 142.109375 79.089844 142.113281 C 82.621094 142.109375 85.476562 139.246094 85.480469 135.714844 L 84.007812 135.714844 " fill-opacity="1" fill-rule="nonzero"/><path fill="#fff" d="M 42.644531 149.976562 L 41.175781 149.976562 C 41.171875 151.882812 39.632812 153.421875 37.726562 153.425781 C 36.769531 153.425781 35.914062 153.042969 35.285156 152.414062 C 34.65625 151.785156 34.273438 150.933594 34.273438 149.976562 C 34.273438 149.015625 34.65625 148.164062 35.285156 147.535156 C 35.914062 146.90625 36.769531 146.523438 37.726562 146.523438 C 39.632812 146.523438 41.171875 148.066406 41.175781 149.976562 L 44.113281 149.976562 C 44.113281 146.441406 41.253906 143.578125 37.726562 143.578125 C 34.199219 143.578125 31.335938 146.4375 31.335938 149.976562 C 31.335938 153.511719 34.199219 156.371094 37.726562 156.371094 C 41.253906 156.371094 44.113281 153.511719 44.113281 149.976562 L 42.644531 149.976562 " fill-opacity="1" fill-rule="nonzero"/><path fill="#fff" d="M 59.199219 164.238281 L 57.730469 164.238281 C 57.730469 165.199219 57.347656 166.050781 56.71875 166.679688 C 56.09375 167.304688 55.242188 167.691406 54.285156 167.695312 C 53.324219 167.691406 52.476562 167.304688 51.84375 166.679688 C 51.21875 166.046875 50.835938 165.199219 50.835938 164.238281 C 50.835938 163.28125 51.21875 162.425781 51.84375 161.796875 C 52.476562 161.167969 53.324219 160.785156 54.285156 160.78125 C 55.242188 160.785156 56.09375 161.167969 56.71875 161.796875 C 57.347656 162.425781 57.730469 163.28125 57.730469 164.238281 L 60.671875 164.238281 C 60.671875 160.707031 57.816406 157.839844 54.285156 157.839844 C 50.753906 157.839844 47.898438 160.703125 47.898438 164.238281 C 47.898438 167.769531 50.753906 170.632812 54.285156 170.636719 C 57.816406 170.632812 60.671875 167.769531 60.671875 164.238281 L 59.199219 164.238281 " fill-opacity="1" fill-rule="nonzero"/><path fill="#fff" d="M 59.199219 178.5 L 57.730469 178.5 C 57.726562 180.410156 56.191406 181.949219 54.285156 181.953125 C 52.375 181.949219 50.835938 180.40625 50.835938 178.5 C 50.835938 176.59375 52.375 175.050781 54.285156 175.046875 C 56.1875 175.050781 57.726562 176.59375 57.730469 178.5 L 60.671875 178.5 C 60.671875 174.96875 57.8125 172.101562 54.285156 172.101562 C 50.757812 172.101562 47.898438 174.96875 47.898438 178.5 C 47.898438 182.035156 50.757812 184.898438 54.285156 184.898438 C 57.8125 184.898438 60.671875 182.035156 60.671875 178.5 L 59.199219 178.5 " fill-opacity="1" fill-rule="nonzero"/><path fill="#fff" d="M 42.644531 192.761719 L 41.175781 192.761719 C 41.175781 193.71875 40.789062 194.574219 40.164062 195.207031 C 39.535156 195.832031 38.683594 196.214844 37.726562 196.214844 C 36.769531 196.214844 35.914062 195.832031 35.285156 195.203125 C 34.660156 194.574219 34.273438 193.71875 34.273438 192.761719 C 34.273438 191.804688 34.65625 190.953125 35.285156 190.324219 C 35.914062 189.695312 36.769531 189.308594 37.726562 189.304688 C 38.683594 189.308594 39.535156 189.695312 40.164062 190.320312 C 40.792969 190.953125 41.175781 191.800781 41.175781 192.761719 L 44.113281 192.761719 C 44.109375 189.230469 41.253906 186.367188 37.726562 186.363281 C 34.199219 186.367188 31.335938 189.226562 31.335938 192.761719 C 31.335938 196.296875 34.199219 199.160156 37.726562 199.160156 C 41.253906 199.160156 44.109375 196.296875 44.113281 192.761719 L 42.644531 192.761719 " fill-opacity="1" fill-rule="nonzero"/><path fill="#fff" d="M 87.402344 207.027344 L 85.933594 207.027344 C 85.933594 207.984375 85.546875 208.832031 84.917969 209.464844 C 84.292969 210.09375 83.4375 210.480469 82.484375 210.480469 C 81.527344 210.480469 80.675781 210.09375 80.046875 209.464844 C 79.417969 208.835938 79.035156 207.984375 79.035156 207.027344 C 79.035156 206.066406 79.417969 205.210938 80.046875 204.582031 C 80.675781 203.953125 81.527344 203.570312 82.484375 203.570312 C 83.4375 203.570312 84.292969 203.953125 84.917969 204.582031 C 85.546875 205.210938 85.933594 206.070312 85.933594 207.027344 L 88.875 207.027344 C 88.871094 203.488281 86.011719 200.625 82.484375 200.625 C 78.957031 200.625 76.097656 203.488281 76.097656 207.027344 C 76.097656 210.558594 78.957031 213.417969 82.484375 213.421875 C 86.011719 213.417969 88.871094 210.558594 88.875 207.027344 L 87.402344 207.027344 " fill-opacity="1" fill-rule="nonzero"/><g clip-path="url(#deb8c46efb)"><path fill="#fff" d="M 30.308594 221.285156 L 28.839844 221.285156 C 28.835938 222.246094 28.453125 223.101562 27.828125 223.730469 C 27.199219 224.355469 26.347656 224.738281 25.390625 224.738281 C 24.433594 224.738281 23.578125 224.355469 22.949219 223.726562 C 22.324219 223.097656 21.941406 222.246094 21.9375 221.285156 C 21.941406 220.328125 22.324219 219.472656 22.949219 218.84375 C 23.578125 218.214844 24.433594 217.832031 25.390625 217.832031 C 26.347656 217.832031 27.199219 218.214844 27.828125 218.84375 C 28.453125 219.472656 28.835938 220.328125 28.839844 221.285156 L 31.777344 221.285156 C 31.773438 217.75 28.914062 214.886719 25.390625 214.886719 C 21.863281 214.886719 19 217.75 18.996094 221.285156 C 19 224.820312 21.863281 227.683594 25.390625 227.683594 C 28.914062 227.683594 31.773438 224.820312 31.777344 221.285156 L 30.308594 221.285156 " fill-opacity="1" fill-rule="nonzero"/></g><path fill="#fff" d="M 59.199219 235.546875 L 57.730469 235.546875 C 57.730469 236.503906 57.347656 237.359375 56.71875 237.992188 C 56.09375 238.621094 55.242188 239.003906 54.285156 239.003906 C 53.324219 239.003906 52.476562 238.621094 51.84375 237.992188 C 51.21875 237.359375 50.835938 236.503906 50.835938 235.546875 C 50.835938 234.589844 51.21875 233.738281 51.84375 233.109375 C 52.476562 232.480469 53.324219 232.09375 54.285156 232.09375 C 55.242188 232.09375 56.09375 232.480469 56.71875 233.109375 C 57.347656 233.738281 57.730469 234.589844 57.730469 235.546875 L 60.671875 235.546875 C 60.671875 232.015625 57.816406 229.152344 54.285156 229.152344 C 50.753906 229.152344 47.898438 232.015625 47.898438 235.546875 C 47.898438 239.082031 50.753906 241.945312 54.285156 241.949219 C 57.816406 241.949219 60.671875 239.082031 60.671875 235.546875 L 59.199219 235.546875 " fill-opacity="1" fill-rule="nonzero"/><path fill="#fff" d="M 238.386719 76.878906 L 238.386719 75.40625 C 237.433594 75.40625 236.582031 75.023438 235.949219 74.398438 C 235.328125 73.765625 234.945312 72.910156 234.945312 71.957031 C 234.945312 70.992188 235.328125 70.140625 235.949219 69.507812 C 236.578125 68.882812 237.433594 68.5 238.386719 68.496094 C 239.339844 68.5 240.195312 68.882812 240.824219 69.507812 C 241.449219 70.140625 241.832031 70.996094 241.832031 71.957031 C 241.832031 72.910156 241.449219 73.765625 240.828125 74.398438 C 240.195312 75.023438 239.34375 75.40625 238.386719 75.40625 L 238.386719 78.351562 C 241.917969 78.351562 244.773438 75.488281 244.773438 71.957031 C 244.773438 68.421875 241.914062 65.554688 238.386719 65.550781 C 234.859375 65.554688 232.003906 68.421875 232.003906 71.957031 C 232.003906 75.488281 234.859375 78.351562 238.386719 78.351562 L 238.386719 76.878906 " fill-opacity="1" fill-rule="nonzero"/><g clip-path="url(#59da9761f1)"><path fill="#fff" d="M 224.148438 32.769531 L 224.148438 31.296875 C 223.191406 31.296875 222.339844 30.914062 221.710938 30.289062 C 221.085938 29.660156 220.703125 28.804688 220.699219 27.847656 C 220.703125 26.890625 221.085938 26.035156 221.710938 25.40625 C 222.339844 24.777344 223.191406 24.394531 224.148438 24.394531 C 225.105469 24.394531 225.960938 24.777344 226.585938 25.40625 C 227.214844 26.035156 227.597656 26.890625 227.597656 27.847656 C 227.597656 28.804688 227.214844 29.65625 226.585938 30.289062 C 225.960938 30.914062 225.105469 31.296875 224.148438 31.296875 L 224.148438 34.242188 C 227.675781 34.242188 230.539062 31.382812 230.539062 27.847656 C 230.539062 24.3125 227.679688 21.449219 224.148438 21.449219 C 220.625 21.449219 217.765625 24.3125 217.761719 27.847656 C 217.765625 31.382812 220.625 34.242188 224.148438 34.242188 L 224.148438 32.769531 " fill-opacity="1" fill-rule="nonzero"/></g><path fill="#fff" d="M 209.910156 46.847656 L 209.910156 45.375 C 208.957031 45.371094 208.101562 44.988281 207.476562 44.359375 C 206.847656 43.734375 206.464844 42.878906 206.464844 41.917969 C 206.464844 40.960938 206.847656 40.105469 207.476562 39.476562 C 208.101562 38.851562 208.957031 38.46875 209.910156 38.46875 C 211.816406 38.464844 213.359375 40.011719 213.359375 41.917969 C 213.359375 43.828125 211.816406 45.375 209.910156 45.375 L 209.910156 48.316406 C 213.4375 48.3125 216.296875 45.453125 216.296875 41.917969 C 216.296875 38.382812 213.4375 35.523438 209.910156 35.523438 C 206.382812 35.523438 203.523438 38.382812 203.523438 41.917969 C 203.523438 45.453125 206.382812 48.3125 209.910156 48.316406 L 209.910156 46.847656 " fill-opacity="1" fill-rule="nonzero"/><g clip-path="url(#5ae1959c95)"><path fill="#fff" d="M 195.675781 32.769531 L 195.675781 31.296875 C 194.714844 31.296875 193.863281 30.914062 193.230469 30.289062 C 192.609375 29.660156 192.226562 28.804688 192.222656 27.847656 C 192.226562 26.890625 192.609375 26.035156 193.230469 25.40625 C 193.863281 24.777344 194.714844 24.394531 195.675781 24.394531 C 197.582031 24.398438 199.113281 25.9375 199.117188 27.847656 C 199.117188 28.804688 198.734375 29.65625 198.109375 30.289062 C 197.480469 30.914062 196.628906 31.296875 195.675781 31.296875 L 195.675781 34.242188 C 199.199219 34.242188 202.058594 31.382812 202.058594 27.847656 C 202.058594 24.3125 199.203125 21.449219 195.675781 21.449219 C 192.144531 21.449219 189.285156 24.3125 189.28125 27.847656 C 189.285156 31.382812 192.144531 34.242188 195.675781 34.242188 L 195.675781 32.769531 " fill-opacity="1" fill-rule="nonzero"/></g><path fill="#fff" d="M 181.433594 76.28125 L 181.433594 74.808594 C 180.476562 74.808594 179.625 74.425781 178.996094 73.800781 C 178.367188 73.171875 177.984375 72.316406 177.984375 71.351562 C 177.984375 70.394531 178.367188 69.542969 178.996094 68.910156 C 179.625 68.28125 180.476562 67.898438 181.433594 67.898438 C 182.386719 67.898438 183.242188 68.28125 183.871094 68.910156 C 184.496094 69.542969 184.882812 70.394531 184.882812 71.351562 C 184.882812 72.3125 184.496094 73.164062 183.871094 73.796875 C 183.242188 74.425781 182.386719 74.808594 181.433594 74.808594 L 181.433594 77.753906 C 184.964844 77.753906 187.820312 74.886719 187.824219 71.351562 C 187.820312 67.820312 184.960938 64.957031 181.433594 64.953125 C 177.90625 64.957031 175.046875 67.820312 175.046875 71.351562 C 175.046875 74.890625 177.90625 77.753906 181.433594 77.753906 L 181.433594 76.28125 " fill-opacity="1" fill-rule="nonzero"/><path fill="#fff" d="M 167.195312 76.28125 L 167.195312 74.808594 C 165.292969 74.804688 163.75 73.265625 163.746094 71.351562 C 163.746094 70.394531 164.128906 69.539062 164.757812 68.910156 C 165.382812 68.28125 166.238281 67.898438 167.195312 67.898438 C 168.152344 67.898438 169 68.28125 169.628906 68.910156 C 170.257812 69.542969 170.640625 70.398438 170.640625 71.355469 C 170.640625 72.3125 170.257812 73.167969 169.632812 73.796875 C 169.003906 74.425781 168.152344 74.808594 167.195312 74.808594 L 167.195312 77.753906 C 170.722656 77.753906 173.578125 74.886719 173.578125 71.355469 C 173.578125 67.824219 170.722656 64.953125 167.195312 64.953125 C 163.664062 64.957031 160.808594 67.824219 160.804688 71.351562 C 160.804688 74.890625 163.664062 77.753906 167.195312 77.753906 L 167.195312 76.28125 " fill-opacity="1" fill-rule="nonzero"/><g clip-path="url(#dd0a066db6)"><path fill="#fff" d="M 152.960938 32.769531 L 152.960938 31.296875 C 152 31.296875 151.144531 30.914062 150.515625 30.289062 C 149.894531 29.660156 149.507812 28.804688 149.507812 27.847656 C 149.507812 26.890625 149.894531 26.035156 150.515625 25.40625 C 151.144531 24.777344 152 24.394531 152.960938 24.394531 C 153.914062 24.394531 154.765625 24.777344 155.394531 25.40625 C 156.023438 26.035156 156.402344 26.890625 156.40625 27.847656 C 156.402344 28.804688 156.023438 29.660156 155.394531 30.289062 C 154.765625 30.914062 153.914062 31.296875 152.960938 31.296875 L 152.960938 34.242188 C 156.480469 34.242188 159.339844 31.382812 159.34375 27.847656 C 159.339844 24.3125 156.480469 21.453125 152.960938 21.449219 C 149.429688 21.449219 146.566406 24.3125 146.566406 27.847656 C 146.566406 31.382812 149.429688 34.242188 152.960938 34.242188 L 152.960938 32.769531 " fill-opacity="1" fill-rule="nonzero"/></g><path fill="#fff" d="M 138.714844 64.367188 L 138.714844 62.894531 C 137.761719 62.894531 136.910156 62.511719 136.277344 61.882812 C 135.652344 61.25 135.269531 60.394531 135.269531 59.4375 C 135.269531 58.476562 135.652344 57.628906 136.277344 56.996094 C 136.90625 56.371094 137.757812 55.988281 138.714844 55.988281 C 139.671875 55.988281 140.527344 56.371094 141.15625 56.996094 C 141.78125 57.628906 142.164062 58.476562 142.164062 59.4375 C 142.164062 60.394531 141.78125 61.25 141.152344 61.882812 C 140.527344 62.511719 139.671875 62.894531 138.714844 62.894531 L 138.714844 65.839844 C 142.246094 65.839844 145.105469 62.972656 145.105469 59.4375 C 145.105469 55.902344 142.242188 53.042969 138.714844 53.042969 C 135.191406 53.042969 132.332031 55.902344 132.332031 59.4375 C 132.332031 62.972656 135.1875 65.839844 138.714844 65.839844 L 138.714844 64.367188 " fill-opacity="1" fill-rule="nonzero"/><path fill="#fff" d="M 308.925781 235.554688 L 310.394531 235.554688 C 310.394531 234.59375 310.777344 233.742188 311.402344 233.113281 C 312.03125 232.484375 312.882812 232.097656 313.839844 232.097656 C 314.796875 232.097656 315.648438 232.484375 316.277344 233.113281 C 316.90625 233.742188 317.289062 234.59375 317.289062 235.554688 C 317.289062 236.511719 316.90625 237.367188 316.277344 237.996094 C 315.648438 238.625 314.796875 239.007812 313.839844 239.007812 C 312.882812 239.007812 312.03125 238.625 311.402344 237.996094 C 310.777344 237.367188 310.394531 236.511719 310.394531 235.554688 L 307.453125 235.554688 C 307.453125 239.089844 310.308594 241.953125 313.839844 241.953125 C 317.367188 241.953125 320.226562 239.089844 320.226562 235.554688 C 320.226562 232.023438 317.367188 229.15625 313.839844 229.15625 C 310.308594 229.15625 307.453125 232.023438 307.453125 235.554688 L 308.925781 235.554688 " fill-opacity="1" fill-rule="nonzero"/><g clip-path="url(#4884b11b29)"><path fill="#fff" d="M 344.382812 221.289062 L 345.851562 221.289062 C 345.851562 220.335938 346.234375 219.480469 346.863281 218.851562 C 347.488281 218.222656 348.34375 217.839844 349.300781 217.835938 C 350.253906 217.839844 351.105469 218.222656 351.738281 218.851562 C 352.367188 219.480469 352.75 220.335938 352.75 221.289062 C 352.75 222.25 352.367188 223.105469 351.738281 223.734375 C 351.105469 224.359375 350.257812 224.742188 349.300781 224.742188 C 348.34375 224.742188 347.488281 224.359375 346.863281 223.734375 C 346.234375 223.105469 345.851562 222.25 345.851562 221.289062 L 342.90625 221.289062 C 342.910156 224.824219 345.769531 227.6875 349.300781 227.6875 C 352.824219 227.6875 355.683594 224.824219 355.6875 221.289062 C 355.683594 217.757812 352.824219 214.894531 349.300781 214.890625 C 345.769531 214.894531 342.910156 217.757812 342.90625 221.289062 L 344.382812 221.289062 " fill-opacity="1" fill-rule="nonzero"/></g><g clip-path="url(#d767eaba57)"><path fill="#fff" d="M 344.382812 207.03125 L 345.851562 207.03125 C 345.851562 206.070312 346.234375 205.21875 346.863281 204.589844 C 347.488281 203.960938 348.34375 203.578125 349.300781 203.578125 C 350.257812 203.578125 351.105469 203.960938 351.738281 204.589844 C 352.367188 205.21875 352.75 206.074219 352.75 207.03125 C 352.75 207.992188 352.363281 208.839844 351.738281 209.46875 C 351.109375 210.097656 350.257812 210.484375 349.300781 210.484375 C 348.34375 210.484375 347.488281 210.097656 346.863281 209.46875 C 346.234375 208.839844 345.851562 207.992188 345.847656 207.03125 L 342.910156 207.03125 C 342.910156 210.566406 345.769531 213.425781 349.300781 213.425781 C 352.824219 213.425781 355.683594 210.566406 355.6875 207.03125 C 355.683594 203.492188 352.824219 200.632812 349.300781 200.632812 C 345.769531 200.632812 342.910156 203.492188 342.90625 207.03125 L 344.382812 207.03125 " fill-opacity="1" fill-rule="nonzero"/></g><path fill="#fff" d="M 283.21875 192.765625 L 284.691406 192.765625 C 284.695312 191.804688 285.078125 190.957031 285.699219 190.328125 C 286.328125 189.699219 287.183594 189.3125 288.140625 189.3125 C 289.097656 189.3125 289.949219 189.699219 290.578125 190.328125 C 291.203125 190.957031 291.585938 191.808594 291.585938 192.765625 C 291.585938 193.722656 291.203125 194.578125 290.578125 195.210938 C 289.949219 195.835938 289.097656 196.21875 288.140625 196.222656 C 287.183594 196.21875 286.328125 195.835938 285.699219 195.210938 C 285.078125 194.578125 284.695312 193.722656 284.691406 192.765625 L 281.75 192.765625 C 281.753906 196.300781 284.609375 199.164062 288.140625 199.167969 C 291.667969 199.164062 294.523438 196.300781 294.527344 192.765625 C 294.523438 189.234375 291.667969 186.371094 288.140625 186.371094 C 284.609375 186.371094 281.753906 189.234375 281.75 192.765625 L 283.21875 192.765625 " fill-opacity="1" fill-rule="nonzero"/><path fill="#fff" d="M 334.542969 178.503906 L 336.011719 178.503906 C 336.015625 176.597656 337.554688 175.054688 339.460938 175.050781 C 341.367188 175.054688 342.90625 176.597656 342.90625 178.503906 C 342.90625 180.410156 341.367188 181.953125 339.460938 181.957031 C 337.554688 181.953125 336.015625 180.414062 336.011719 178.503906 L 333.074219 178.503906 C 333.074219 182.039062 335.933594 184.902344 339.460938 184.902344 C 342.992188 184.902344 345.847656 182.039062 345.851562 178.503906 C 345.847656 174.972656 342.992188 172.105469 339.460938 172.105469 C 335.933594 172.105469 333.078125 174.972656 333.074219 178.503906 L 334.542969 178.503906 " fill-opacity="1" fill-rule="nonzero"/><path fill="#fff" d="M 324.707031 164.246094 L 326.175781 164.246094 C 326.179688 163.285156 326.5625 162.429688 327.1875 161.800781 C 327.816406 161.171875 328.667969 160.789062 329.625 160.789062 C 330.582031 160.789062 331.433594 161.171875 332.0625 161.800781 C 332.691406 162.429688 333.074219 163.285156 333.074219 164.246094 C 333.074219 165.207031 332.691406 166.054688 332.066406 166.683594 C 331.433594 167.3125 330.585938 167.699219 329.625 167.699219 C 328.667969 167.699219 327.8125 167.3125 327.1875 166.683594 C 326.5625 166.054688 326.179688 165.207031 326.175781 164.246094 L 323.234375 164.246094 C 323.238281 167.78125 326.097656 170.640625 329.625 170.640625 C 333.152344 170.640625 336.011719 167.78125 336.011719 164.246094 C 336.011719 160.707031 333.15625 157.84375 329.625 157.84375 C 326.09375 157.84375 323.238281 160.707031 323.234375 164.246094 L 324.707031 164.246094 " fill-opacity="1" fill-rule="nonzero"/><path fill="#fff" d="M 334.542969 149.980469 L 336.011719 149.980469 C 336.015625 149.019531 336.398438 148.167969 337.023438 147.539062 C 337.652344 146.914062 338.503906 146.523438 339.460938 146.523438 C 340.417969 146.523438 341.273438 146.914062 341.902344 147.539062 C 342.523438 148.167969 342.90625 149.019531 342.90625 149.980469 C 342.90625 150.9375 342.523438 151.792969 341.902344 152.421875 C 341.273438 153.050781 340.417969 153.433594 339.460938 153.433594 C 338.503906 153.433594 337.652344 153.050781 337.023438 152.421875 C 336.398438 151.792969 336.015625 150.9375 336.011719 149.980469 L 333.074219 149.980469 C 333.078125 153.511719 335.933594 156.378906 339.460938 156.378906 C 342.992188 156.378906 345.847656 153.515625 345.851562 149.980469 C 345.847656 146.449219 342.992188 143.585938 339.460938 143.582031 C 335.933594 143.585938 333.078125 146.449219 333.074219 149.980469 L 334.542969 149.980469 " fill-opacity="1" fill-rule="nonzero"/><path fill="#fff" d="M 304.003906 135.71875 L 305.476562 135.71875 C 305.476562 134.757812 305.859375 133.90625 306.484375 133.273438 C 307.113281 132.648438 307.964844 132.265625 308.925781 132.265625 C 310.828125 132.269531 312.363281 133.808594 312.367188 135.71875 C 312.363281 137.625 310.828125 139.167969 308.925781 139.171875 C 307.964844 139.171875 307.113281 138.789062 306.484375 138.160156 C 305.859375 137.53125 305.476562 136.675781 305.476562 135.71875 L 302.535156 135.71875 C 302.535156 139.253906 305.394531 142.117188 308.925781 142.117188 C 312.449219 142.117188 315.308594 139.253906 315.308594 135.71875 C 315.308594 132.1875 312.449219 129.320312 308.925781 129.320312 C 305.394531 129.320312 302.535156 132.183594 302.535156 135.71875 L 304.003906 135.71875 " fill-opacity="1" fill-rule="nonzero"/><path fill="#fff" d="M 138.289062 283.847656 L 138.289062 285.320312 C 139.246094 285.320312 140.097656 285.703125 140.730469 286.332031 C 141.355469 286.960938 141.738281 287.816406 141.738281 288.769531 C 141.738281 289.730469 141.351562 290.585938 140.726562 291.21875 C 140.097656 291.847656 139.246094 292.230469 138.289062 292.230469 C 137.335938 292.230469 136.480469 291.847656 135.851562 291.21875 C 135.226562 290.585938 134.84375 289.730469 134.84375 288.769531 C 134.84375 287.816406 135.226562 286.960938 135.851562 286.332031 C 136.480469 285.703125 137.335938 285.320312 138.289062 285.320312 L 138.289062 282.375 C 134.761719 282.375 131.902344 285.238281 131.902344 288.769531 C 131.902344 292.304688 134.761719 295.171875 138.289062 295.175781 C 141.816406 295.171875 144.675781 292.304688 144.679688 288.769531 C 144.675781 285.238281 141.816406 282.375 138.289062 282.375 L 138.289062 283.847656 " fill-opacity="1" fill-rule="nonzero"/><path fill="#fff" d="M 152.527344 309.761719 L 152.527344 311.234375 C 154.4375 311.238281 155.972656 312.777344 155.976562 314.6875 C 155.972656 316.59375 154.433594 318.136719 152.527344 318.140625 C 151.570312 318.140625 150.71875 317.757812 150.089844 317.128906 C 149.464844 316.5 149.082031 315.648438 149.082031 314.6875 C 149.082031 313.726562 149.464844 312.875 150.089844 312.246094 C 150.71875 311.617188 151.570312 311.234375 152.527344 311.234375 L 152.527344 308.289062 C 149 308.289062 146.140625 311.152344 146.140625 314.6875 C 146.140625 318.226562 149 321.085938 152.527344 321.085938 C 156.058594 321.085938 158.914062 318.222656 158.914062 314.6875 C 158.914062 311.15625 156.054688 308.289062 152.527344 308.289062 L 152.527344 309.761719 " fill-opacity="1" fill-rule="nonzero"/><g clip-path="url(#eaff0d3dd8)"><path fill="#fff" d="M 166.765625 342.371094 L 166.765625 343.84375 C 167.722656 343.84375 168.578125 344.230469 169.203125 344.855469 C 169.832031 345.484375 170.214844 346.339844 170.214844 347.300781 C 170.214844 348.257812 169.832031 349.109375 169.203125 349.738281 C 168.578125 350.367188 167.722656 350.75 166.765625 350.75 C 164.859375 350.75 163.316406 349.203125 163.316406 347.296875 L 163.316406 347.300781 C 163.316406 345.390625 164.859375 343.84375 166.765625 343.84375 L 166.765625 340.898438 C 163.242188 340.898438 160.382812 343.765625 160.378906 347.296875 L 160.378906 347.300781 C 160.382812 350.835938 163.242188 353.695312 166.765625 353.695312 C 170.296875 353.695312 173.15625 350.835938 173.15625 347.300781 C 173.15625 343.765625 170.296875 340.898438 166.765625 340.898438 L 166.765625 342.371094 " fill-opacity="1" fill-rule="nonzero"/></g><path fill="#fff" d="M 181.003906 323.28125 L 181.003906 324.753906 C 181.960938 324.753906 182.816406 325.136719 183.445312 325.765625 C 184.070312 326.390625 184.453125 327.246094 184.453125 328.207031 C 184.453125 329.164062 184.070312 330.019531 183.445312 330.652344 C 182.816406 331.28125 181.960938 331.664062 181.003906 331.664062 C 180.046875 331.664062 179.199219 331.28125 178.566406 330.652344 C 177.945312 330.019531 177.5625 329.164062 177.558594 328.207031 C 177.5625 327.246094 177.945312 326.390625 178.566406 325.761719 C 179.195312 325.136719 180.046875 324.753906 181.003906 324.753906 L 181.003906 321.808594 C 177.480469 321.808594 174.621094 324.671875 174.617188 328.207031 C 174.621094 331.742188 177.476562 334.605469 181.003906 334.609375 C 184.535156 334.605469 187.394531 331.742188 187.394531 328.207031 C 187.394531 324.671875 184.53125 321.808594 181.003906 321.808594 L 181.003906 323.28125 " fill-opacity="1" fill-rule="nonzero"/><path fill="#fff" d="M 195.246094 337.441406 L 195.246094 338.914062 C 196.203125 338.917969 197.050781 339.300781 197.679688 339.929688 C 198.308594 340.558594 198.691406 341.414062 198.691406 342.371094 C 198.691406 343.332031 198.308594 344.1875 197.683594 344.816406 C 197.054688 345.445312 196.203125 345.828125 195.246094 345.828125 C 194.289062 345.828125 193.433594 345.441406 192.808594 344.816406 C 192.179688 344.183594 191.800781 343.332031 191.796875 342.371094 C 191.800781 341.414062 192.183594 340.558594 192.808594 339.925781 C 193.433594 339.300781 194.289062 338.917969 195.246094 338.914062 L 195.246094 335.96875 C 191.710938 335.972656 188.859375 338.839844 188.855469 342.371094 C 188.859375 345.902344 191.710938 348.773438 195.246094 348.773438 C 198.769531 348.773438 201.628906 345.90625 201.632812 342.371094 C 201.628906 338.839844 198.773438 335.972656 195.246094 335.96875 L 195.246094 337.441406 " fill-opacity="1" fill-rule="nonzero"/><path fill="#fff" d="M 209.480469 293.703125 L 209.480469 295.175781 C 210.441406 295.175781 211.296875 295.558594 211.921875 296.1875 C 212.550781 296.816406 212.933594 297.667969 212.933594 298.625 C 212.933594 299.582031 212.550781 300.4375 211.921875 301.066406 C 211.296875 301.691406 210.441406 302.078125 209.480469 302.078125 C 208.527344 302.078125 207.675781 301.691406 207.046875 301.066406 C 206.417969 300.4375 206.035156 299.582031 206.035156 298.625 C 206.035156 297.667969 206.417969 296.816406 207.042969 296.1875 C 207.675781 295.558594 208.527344 295.175781 209.480469 295.175781 L 209.480469 292.230469 C 205.957031 292.230469 203.097656 295.089844 203.097656 298.625 C 203.097656 302.164062 205.960938 305.023438 209.480469 305.023438 C 213.011719 305.023438 215.875 302.164062 215.875 298.625 C 215.875 295.089844 213.011719 292.230469 209.480469 292.230469 L 209.480469 293.703125 " fill-opacity="1" fill-rule="nonzero"/><path fill="#fff" d="M 223.722656 309.761719 L 223.722656 311.234375 C 224.675781 311.234375 225.53125 311.617188 226.160156 312.242188 C 226.785156 312.875 227.167969 313.726562 227.167969 314.6875 C 227.167969 315.648438 226.785156 316.5 226.160156 317.128906 C 225.53125 317.757812 224.675781 318.140625 223.722656 318.140625 C 222.765625 318.140625 221.914062 317.757812 221.285156 317.128906 C 220.65625 316.503906 220.273438 315.648438 220.273438 314.6875 C 220.273438 313.726562 220.65625 312.875 221.28125 312.246094 C 221.914062 311.617188 222.761719 311.234375 223.722656 311.234375 L 223.722656 308.289062 C 220.195312 308.289062 217.335938 311.152344 217.335938 314.6875 C 217.335938 318.226562 220.199219 321.085938 223.722656 321.085938 C 227.25 321.085938 230.109375 318.226562 230.109375 314.6875 C 230.109375 311.152344 227.25 308.289062 223.722656 308.289062 L 223.722656 309.761719 " fill-opacity="1" fill-rule="nonzero"/><path fill="#fff" d="M 237.960938 318.296875 L 237.960938 319.769531 C 238.917969 319.769531 239.769531 320.15625 240.398438 320.78125 C 241.027344 321.414062 241.410156 322.265625 241.410156 323.226562 C 241.410156 324.183594 241.027344 325.035156 240.398438 325.664062 C 239.769531 326.292969 238.917969 326.675781 237.960938 326.675781 C 237.003906 326.675781 236.148438 326.292969 235.523438 325.664062 C 234.898438 325.035156 234.515625 324.179688 234.515625 323.226562 C 234.515625 322.265625 234.898438 321.414062 235.527344 320.78125 C 236.152344 320.15625 237.007812 319.769531 237.960938 319.769531 L 237.960938 316.824219 C 234.429688 316.828125 231.574219 319.695312 231.574219 323.226562 C 231.574219 326.753906 234.425781 329.621094 237.960938 329.621094 C 241.488281 329.621094 244.347656 326.761719 244.347656 323.226562 C 244.347656 319.695312 241.488281 316.824219 237.960938 316.824219 L 237.960938 318.296875 " fill-opacity="1" fill-rule="nonzero"/></svg>